 <svg
  width="175"
  height="50"
  viewBox="0 0 175 50"
  fill="none"
  xmlns="http://www.w3.org/2000/svg"
>
  <path
    d="M32.292 18.954C33.66 18.954 34.842 19.212 35.838 19.728C36.846 20.232 37.614 20.958 38.142 21.906C38.682 22.854 38.952 23.97 38.952 25.254C38.952 26.538 38.682 27.654 38.142 28.602C37.614 29.538 36.846 30.258 35.838 30.762C34.842 31.254 33.66 31.5 32.292 31.5H28.386V18.954H32.292ZM32.292 30.15C33.912 30.15 35.148 29.724 36 28.872C36.852 28.008 37.278 26.802 37.278 25.254C37.278 23.694 36.846 22.476 35.982 21.6C35.13 20.724 33.9 20.286 32.292 20.286H30.024V30.15H32.292ZM45.4146 31.662C44.4906 31.662 43.6506 31.452 42.8946 31.032C42.1506 30.612 41.5626 30.018 41.1306 29.25C40.7106 28.47 40.5006 27.57 40.5006 26.55C40.5006 25.542 40.7166 24.654 41.1486 23.886C41.5926 23.106 42.1926 22.512 42.9486 22.104C43.7046 21.684 44.5506 21.474 45.4866 21.474C46.4226 21.474 47.2686 21.684 48.0246 22.104C48.7806 22.512 49.3746 23.1 49.8066 23.868C50.2506 24.636 50.4726 25.53 50.4726 26.55C50.4726 27.57 50.2446 28.47 49.7886 29.25C49.3446 30.018 48.7386 30.612 47.9706 31.032C47.2026 31.452 46.3506 31.662 45.4146 31.662ZM45.4146 30.222C46.0026 30.222 46.5546 30.084 47.0706 29.808C47.5866 29.532 48.0006 29.118 48.3126 28.566C48.6366 28.014 48.7986 27.342 48.7986 26.55C48.7986 25.758 48.6426 25.086 48.3306 24.534C48.0186 23.982 47.6106 23.574 47.1066 23.31C46.6026 23.034 46.0566 22.896 45.4686 22.896C44.8686 22.896 44.3166 23.034 43.8126 23.31C43.3206 23.574 42.9246 23.982 42.6246 24.534C42.3246 25.086 42.1746 25.758 42.1746 26.55C42.1746 27.354 42.3186 28.032 42.6066 28.584C42.9066 29.136 43.3026 29.55 43.7946 29.826C44.2866 30.09 44.8266 30.222 45.4146 30.222ZM65.7662 21.636L62.6882 31.5H60.9962L58.6202 23.67L56.2442 31.5H54.5522L51.4562 21.636H53.1302L55.3982 29.916L57.8462 21.636H59.5202L61.9142 29.934L64.1462 21.636H65.7662ZM72.1979 21.456C73.3979 21.456 74.3699 21.822 75.1139 22.554C75.8579 23.274 76.2299 24.318 76.2299 25.686V31.5H74.6099V25.92C74.6099 24.936 74.3639 24.186 73.8719 23.67C73.3799 23.142 72.7079 22.878 71.8559 22.878C70.9919 22.878 70.3019 23.148 69.7859 23.688C69.2819 24.228 69.0299 25.014 69.0299 26.046V31.5H67.3919V21.636H69.0299V23.04C69.3539 22.536 69.7919 22.146 70.3439 21.87C70.9079 21.594 71.5259 21.456 72.1979 21.456ZM80.5435 18.18V31.5H78.9055V18.18H80.5435ZM87.6372 31.662C86.7132 31.662 85.8732 31.452 85.1172 31.032C84.3732 30.612 83.7852 30.018 83.3532 29.25C82.9332 28.47 82.7232 27.57 82.7232 26.55C82.7232 25.542 82.9392 24.654 83.3712 23.886C83.8152 23.106 84.4152 22.512 85.1712 22.104C85.9272 21.684 86.7732 21.474 87.7092 21.474C88.6452 21.474 89.4912 21.684 90.2472 22.104C91.0032 22.512 91.5972 23.1 92.0292 23.868C92.4732 24.636 92.6952 25.53 92.6952 26.55C92.6952 27.57 92.4672 28.47 92.0112 29.25C91.5672 30.018 90.9612 30.612 90.1932 31.032C89.4252 31.452 88.5732 31.662 87.6372 31.662ZM87.6372 30.222C88.2252 30.222 88.7772 30.084 89.2932 29.808C89.8092 29.532 90.2232 29.118 90.5352 28.566C90.8592 28.014 91.0212 27.342 91.0212 26.55C91.0212 25.758 90.8652 25.086 90.5532 24.534C90.2412 23.982 89.8332 23.574 89.3292 23.31C88.8252 23.034 88.2792 22.896 87.6912 22.896C87.0912 22.896 86.5392 23.034 86.0352 23.31C85.5432 23.574 85.1472 23.982 84.8472 24.534C84.5472 25.086 84.3972 25.758 84.3972 26.55C84.3972 27.354 84.5412 28.032 84.8292 28.584C85.1292 29.136 85.5252 29.55 86.0172 29.826C86.5092 30.09 87.0492 30.222 87.6372 30.222ZM94.2369 26.532C94.2369 25.524 94.4409 24.642 94.8489 23.886C95.2569 23.118 95.8149 22.524 96.5229 22.104C97.2429 21.684 98.0409 21.474 98.9169 21.474C99.7809 21.474 100.531 21.66 101.167 22.032C101.803 22.404 102.277 22.872 102.589 23.436V21.636H104.245V31.5H102.589V29.664C102.265 30.24 101.779 30.72 101.131 31.104C100.495 31.476 99.7509 31.662 98.8989 31.662C98.0229 31.662 97.2309 31.446 96.5229 31.014C95.8149 30.582 95.2569 29.976 94.8489 29.196C94.4409 28.416 94.2369 27.528 94.2369 26.532ZM102.589 26.55C102.589 25.806 102.439 25.158 102.139 24.606C101.839 24.054 101.431 23.634 100.915 23.346C100.411 23.046 99.8529 22.896 99.2409 22.896C98.6289 22.896 98.0709 23.04 97.5669 23.328C97.0629 23.616 96.6609 24.036 96.3609 24.588C96.0609 25.14 95.9109 25.788 95.9109 26.532C95.9109 27.288 96.0609 27.948 96.3609 28.512C96.6609 29.064 97.0629 29.49 97.5669 29.79C98.0709 30.078 98.6289 30.222 99.2409 30.222C99.8529 30.222 100.411 30.078 100.915 29.79C101.431 29.49 101.839 29.064 102.139 28.512C102.439 27.948 102.589 27.294 102.589 26.55ZM106.401 26.532C106.401 25.524 106.605 24.642 107.013 23.886C107.421 23.118 107.979 22.524 108.687 22.104C109.407 21.684 110.211 21.474 111.099 21.474C111.867 21.474 112.581 21.654 113.241 22.014C113.901 22.362 114.405 22.824 114.753 23.4V18.18H116.409V31.5H114.753V29.646C114.429 30.234 113.949 30.72 113.313 31.104C112.677 31.476 111.933 31.662 111.081 31.662C110.205 31.662 109.407 31.446 108.687 31.014C107.979 30.582 107.421 29.976 107.013 29.196C106.605 28.416 106.401 27.528 106.401 26.532ZM114.753 26.55C114.753 25.806 114.603 25.158 114.303 24.606C114.003 24.054 113.595 23.634 113.079 23.346C112.575 23.046 112.017 22.896 111.405 22.896C110.793 22.896 110.235 23.04 109.731 23.328C109.227 23.616 108.825 24.036 108.525 24.588C108.225 25.14 108.075 25.788 108.075 26.532C108.075 27.288 108.225 27.948 108.525 28.512C108.825 29.064 109.227 29.49 109.731 29.79C110.235 30.078 110.793 30.222 111.405 30.222C112.017 30.222 112.575 30.078 113.079 29.79C113.595 29.49 114.003 29.064 114.303 28.512C114.603 27.948 114.753 27.294 114.753 26.55Z"
    fill="black"
  />
  <path d="M138 16.5V31.5" stroke="black" strokeWidth="1.6" />
  <path
    d="M131 26L138 31.5L145 26"
    stroke="black"
    strokeWidth="1.6"
  />
  <path d="M130 33.5H146" stroke="black" strokeWidth="1.6" />
</svg>