 <svg
              width="132"
              height="50"
              viewBox="0 0 132 50"
              fill="none"
              xmlns="http://www.w3.org/2000/svg"
            >
              <path
                d="M29.864 31.626C29.036 31.626 28.292 31.482 27.632 31.194C26.984 30.894 26.474 30.486 26.102 29.97C25.73 29.442 25.538 28.836 25.526 28.152H27.272C27.332 28.74 27.572 29.238 27.992 29.646C28.424 30.042 29.048 30.24 29.864 30.24C30.644 30.24 31.256 30.048 31.7 29.664C32.156 29.268 32.384 28.764 32.384 28.152C32.384 27.672 32.252 27.282 31.988 26.982C31.724 26.682 31.394 26.454 30.998 26.298C30.602 26.142 30.068 25.974 29.396 25.794C28.568 25.578 27.902 25.362 27.398 25.146C26.906 24.93 26.48 24.594 26.12 24.138C25.772 23.67 25.598 23.046 25.598 22.266C25.598 21.582 25.772 20.976 26.12 20.448C26.468 19.92 26.954 19.512 27.578 19.224C28.214 18.936 28.94 18.792 29.756 18.792C30.932 18.792 31.892 19.086 32.636 19.674C33.392 20.262 33.818 21.042 33.914 22.014H32.114C32.054 21.534 31.802 21.114 31.358 20.754C30.914 20.382 30.326 20.196 29.594 20.196C28.91 20.196 28.352 20.376 27.92 20.736C27.488 21.084 27.272 21.576 27.272 22.212C27.272 22.668 27.398 23.04 27.65 23.328C27.914 23.616 28.232 23.838 28.604 23.994C28.988 24.138 29.522 24.306 30.206 24.498C31.034 24.726 31.7 24.954 32.204 25.182C32.708 25.398 33.14 25.74 33.5 26.208C33.86 26.664 34.04 27.288 34.04 28.08C34.04 28.692 33.878 29.268 33.554 29.808C33.23 30.348 32.75 30.786 32.114 31.122C31.478 31.458 30.728 31.626 29.864 31.626ZM41.3465 21.456C42.0905 21.456 42.7625 21.618 43.3625 21.942C43.9625 22.254 44.4305 22.728 44.7665 23.364C45.1145 24 45.2885 24.774 45.2885 25.686V31.5H43.6685V25.92C43.6685 24.936 43.4225 24.186 42.9305 23.67C42.4385 23.142 41.7665 22.878 40.9145 22.878C40.0505 22.878 39.3605 23.148 38.8445 23.688C38.3405 24.228 38.0885 25.014 38.0885 26.046V31.5H36.4505V18.18H38.0885V23.04C38.4125 22.536 38.8565 22.146 39.4205 21.87C39.9965 21.594 40.6385 21.456 41.3465 21.456ZM47.3521 26.532C47.3521 25.524 47.5561 24.642 47.9641 23.886C48.3721 23.118 48.9301 22.524 49.6381 22.104C50.3581 21.684 51.1561 21.474 52.0321 21.474C52.8961 21.474 53.6461 21.66 54.2821 22.032C54.9181 22.404 55.3921 22.872 55.7041 23.436V21.636H57.3601V31.5H55.7041V29.664C55.3801 30.24 54.8941 30.72 54.2461 31.104C53.6101 31.476 52.8661 31.662 52.0141 31.662C51.1381 31.662 50.3461 31.446 49.6381 31.014C48.9301 30.582 48.3721 29.976 47.9641 29.196C47.5561 28.416 47.3521 27.528 47.3521 26.532ZM55.7041 26.55C55.7041 25.806 55.5541 25.158 55.2541 24.606C54.9541 24.054 54.5461 23.634 54.0301 23.346C53.5261 23.046 52.9681 22.896 52.3561 22.896C51.7441 22.896 51.1861 23.04 50.6821 23.328C50.1781 23.616 49.7761 24.036 49.4761 24.588C49.1761 25.14 49.0261 25.788 49.0261 26.532C49.0261 27.288 49.1761 27.948 49.4761 28.512C49.7761 29.064 50.1781 29.49 50.6821 29.79C51.1861 30.078 51.7441 30.222 52.3561 30.222C52.9681 30.222 53.5261 30.078 54.0301 29.79C54.5461 29.49 54.9541 29.064 55.2541 28.512C55.5541 27.948 55.7041 27.294 55.7041 26.55ZM61.7662 23.238C62.0542 22.674 62.4622 22.236 62.9902 21.924C63.5302 21.612 64.1842 21.456 64.9522 21.456V23.148H64.5202C62.6842 23.148 61.7662 24.144 61.7662 26.136V31.5H60.1282V21.636H61.7662V23.238ZM75.843 26.19C75.843 26.502 75.825 26.832 75.789 27.18H67.905C67.965 28.152 68.295 28.914 68.895 29.466C69.507 30.006 70.245 30.276 71.109 30.276C71.817 30.276 72.405 30.114 72.873 29.79C73.353 29.454 73.689 29.01 73.881 28.458H75.645C75.381 29.406 74.853 30.18 74.061 30.78C73.269 31.368 72.285 31.662 71.109 31.662C70.173 31.662 69.333 31.452 68.589 31.032C67.857 30.612 67.281 30.018 66.861 29.25C66.441 28.47 66.231 27.57 66.231 26.55C66.231 25.53 66.435 24.636 66.843 23.868C67.251 23.1 67.821 22.512 68.553 22.104C69.297 21.684 70.149 21.474 71.109 21.474C72.045 21.474 72.873 21.678 73.593 22.086C74.313 22.494 74.865 23.058 75.249 23.778C75.645 24.486 75.843 25.29 75.843 26.19ZM74.151 25.848C74.151 25.224 74.013 24.69 73.737 24.246C73.461 23.79 73.083 23.448 72.603 23.22C72.135 22.98 71.613 22.86 71.037 22.86C70.209 22.86 69.501 23.124 68.913 23.652C68.337 24.18 68.007 24.912 67.923 25.848H74.151Z"
                fill="black"
              />
              <g clipPath="url(#clip0_284_1190)">
                <path
                  d="M99.0991 21.7766V17.9999L103.207 22.1074L106.5 25.4007L103.148 28.194L99.0991 31.5685V27.8729C91.9905 27.3371 89.5 31.4507 89.5 31.4507C89.5 28.8878 89.7112 26.228 91.7261 24.2139C94.0683 21.8709 97.4603 21.7051 99.0991 21.7766Z"
                  stroke="black"
                  strokeWidth="1.6"
                />
              </g>
              <defs>
                <clipPath id="clip0_284_1190">
                  <rect
                    width="20"
                    height="20"
                    fill="white"
                    transform="translate(87.5 15)"
                  />
                </clipPath>
              </defs>
            </svg>