<svg width="137" height="226" viewBox="0 0 137 226" fill="none" xmlns="http://www.w3.org/2000/svg">
<path d="M1.0021 40.5915C0.951757 84.0122 1.58945 132.933 27.5083 167.523C51.7491 199.876 95.0535 211.598 129.405 196.427" stroke="#967053" stroke-width="0.5" stroke-linecap="round" stroke-linejoin="round"/>
<path d="M8.6792 127.345C11.6411 145.221 14.6198 163.166 19.713 180.368" stroke="#967053" stroke-width="0.5" stroke-linecap="round" stroke-linejoin="round"/>
<path d="M34.7246 175.992C42.3434 183.005 52.2108 183.357 59.645 181.482" stroke="#967053" stroke-width="0.5" stroke-linecap="round" stroke-linejoin="round"/>
<path d="M60.4678 194.474C71.5099 200.901 77.0142 210.298 81.7634 221.62" stroke="#967053" stroke-width="0.5" stroke-linecap="round" stroke-linejoin="round"/>
<path d="M94.0967 202.923C107.79 203.49 124.681 187.577 126.585 170.141" stroke="#967053" stroke-width="0.5" stroke-linecap="round" stroke-linejoin="round"/>
<path d="M121.081 185.379C123.364 181.208 123.087 176.148 121.232 172.485C119.261 168.568 115.627 166.614 111.978 166.829" stroke="#967053" stroke-width="0.5" stroke-linecap="round" stroke-linejoin="round"/>
<path d="M16.1813 167.044C17.4567 172.202 15.8373 177.193 12.4727 179.079" stroke="#967053" stroke-width="0.5" stroke-linecap="round" stroke-linejoin="round"/>
<path d="M116.046 167.61C115.484 166.858 115.173 165.862 115.182 164.856C115.19 163.859 115.442 162.922 116.096 162.13C117.355 163.566 117.196 166.399 116.046 167.61Z" stroke="#967053" stroke-width="0.5" stroke-linecap="round" stroke-linejoin="round"/>
<path d="M116.08 162.199C116.089 163.908 116.055 165.608 115.979 167.317" stroke="#967053" stroke-width="0.5" stroke-linecap="round" stroke-linejoin="round"/>
<path d="M120.579 171.235C120.336 169.896 120.52 168.46 121.099 167.278C121.678 166.087 122.501 165.159 123.742 164.709C124.439 167.386 122.643 170.668 120.579 171.235Z" stroke="#967053" stroke-width="0.5" stroke-linecap="round" stroke-linejoin="round"/>
<path d="M123.675 164.778C122.727 166.829 121.72 168.851 120.663 170.834" stroke="#967053" stroke-width="0.5" stroke-linecap="round" stroke-linejoin="round"/>
<path d="M125.578 175.611C126.358 174.595 127.466 173.921 128.632 173.755C129.799 173.589 130.931 173.813 131.972 174.722C130.529 176.959 127.189 177.213 125.578 175.611Z" stroke="#967053" stroke-width="0.5" stroke-linecap="round" stroke-linejoin="round"/>
<path d="M131.879 174.702C129.899 175.025 127.902 175.269 125.905 175.455" stroke="#967053" stroke-width="0.5" stroke-linecap="round" stroke-linejoin="round"/>
<path d="M117.775 190.283C118.556 189.267 119.663 188.593 120.83 188.427C121.996 188.261 123.129 188.486 124.169 189.394C122.726 191.631 119.386 191.885 117.775 190.283Z" stroke="#967053" stroke-width="0.5" stroke-linecap="round" stroke-linejoin="round"/>
<path d="M124.076 189.365C122.096 189.687 120.099 189.931 118.102 190.117" stroke="#967053" stroke-width="0.5" stroke-linecap="round" stroke-linejoin="round"/>
<path d="M135.639 94.4058C136.285 95.5389 136.571 96.9554 136.403 98.3132C136.235 99.671 135.765 100.892 134.758 101.83C133.265 99.6319 133.902 95.8222 135.639 94.4058Z" stroke="#967053" stroke-width="0.5" stroke-linecap="round" stroke-linejoin="round"/>
<path d="M134.8 101.742C135.035 99.4267 135.337 97.1214 135.689 94.8258" stroke="#967053" stroke-width="0.5" stroke-linecap="round" stroke-linejoin="round"/>
<path d="M49.0059 205.639C49.0646 207.007 48.687 208.384 47.9571 209.458C47.2271 210.523 46.2873 211.295 45.0035 211.51C44.6763 208.736 46.8914 205.825 49.0059 205.639Z" stroke="#967053" stroke-width="0.5" stroke-linecap="round" stroke-linejoin="round"/>
<path d="M45.0791 211.451C46.2958 209.595 47.5628 207.788 48.8717 206.03" stroke="#967053" stroke-width="0.5" stroke-linecap="round" stroke-linejoin="round"/>
<path d="M82.5355 37.1041C83.6346 37.5827 84.566 38.5401 85.1198 39.7513C85.6652 40.9529 85.9001 42.2716 85.5477 43.7271C83.2319 42.9652 81.8306 39.429 82.5355 37.1041Z" stroke="#967053" stroke-width="0.5" stroke-linecap="round" stroke-linejoin="round"/>
<path d="M85.5314 43.6294C84.5581 41.5878 83.6435 39.5169 82.7793 37.4069" stroke="#967053" stroke-width="0.5" stroke-linecap="round" stroke-linejoin="round"/>
<path d="M114.411 96.2422C115.342 96.4572 116.198 97.0726 116.777 97.9517C117.356 98.8309 117.691 99.837 117.582 101.048C115.644 100.804 114.125 98.2057 114.411 96.2422Z" stroke="#967053" stroke-width="0.5" stroke-linecap="round" stroke-linejoin="round"/>
<path d="M117.557 100.97C116.55 99.4951 115.577 97.9908 114.646 96.4474" stroke="#967053" stroke-width="0.5" stroke-linecap="round" stroke-linejoin="round"/>
<path d="M22.2056 205.043C22.5915 204.037 23.2964 203.197 24.1606 202.738C25.0248 202.279 25.9478 202.122 26.9379 202.523C26.3002 204.662 23.783 205.815 22.2056 205.043Z" stroke="#967053" stroke-width="0.5" stroke-linecap="round" stroke-linejoin="round"/>
<path d="M26.8713 202.523C25.4113 203.343 23.9262 204.105 22.4326 204.818" stroke="#967053" stroke-width="0.5" stroke-linecap="round" stroke-linejoin="round"/>
<path d="M91.3623 171.049C91.7483 170.043 92.4531 169.203 93.3173 168.744C94.1816 168.284 95.1046 168.128 96.0947 168.529C95.457 170.668 92.9398 171.821 91.3623 171.049Z" stroke="#967053" stroke-width="0.5" stroke-linecap="round" stroke-linejoin="round"/>
<path d="M96.0276 168.529C94.5676 169.349 93.0824 170.111 91.5889 170.824" stroke="#967053" stroke-width="0.5" stroke-linecap="round" stroke-linejoin="round"/>
<path d="M98.7217 66.8685C99.1077 65.8624 99.8125 65.0223 100.677 64.5632C101.541 64.1041 102.464 63.9478 103.454 64.3483C102.816 66.4876 100.299 67.6402 98.7217 66.8685Z" stroke="#967053" stroke-width="0.5" stroke-linecap="round" stroke-linejoin="round"/>
<path d="M103.378 64.3581C101.918 65.1786 100.433 65.9405 98.9395 66.6536" stroke="#967053" stroke-width="0.5" stroke-linecap="round" stroke-linejoin="round"/>
<path d="M117.129 212.711C117.515 213.718 117.582 214.89 117.297 215.945C117.02 217 116.5 217.898 115.585 218.504C114.637 216.521 115.585 213.581 117.121 212.721" stroke="#967053" stroke-width="0.5" stroke-linecap="round" stroke-linejoin="round"/>
<path d="M115.636 218.436C116.089 216.628 116.584 214.831 117.129 213.053" stroke="#967053" stroke-width="0.5" stroke-linecap="round" stroke-linejoin="round"/>
<path d="M30.848 218.514C31.7794 218.729 32.6352 219.344 33.2142 220.223C33.7932 221.102 34.1288 222.108 34.0197 223.32C32.0815 223.076 30.5627 220.477 30.848 218.514Z" stroke="#967053" stroke-width="0.5" stroke-linecap="round" stroke-linejoin="round"/>
<path d="M33.9941 223.242C32.9872 221.767 32.0139 220.262 31.0825 218.719" stroke="#967053" stroke-width="0.5" stroke-linecap="round" stroke-linejoin="round"/>
<path d="M120.275 199.934C121.66 199.436 123.195 199.543 124.513 200.237C125.83 200.931 126.912 202.015 127.517 203.734C124.764 205.033 121.098 202.816 120.275 199.924" stroke="#967053" stroke-width="0.5" stroke-linecap="round" stroke-linejoin="round"/>
<path d="M127.441 203.656C125.167 202.523 122.927 201.302 120.712 200.012" stroke="#967053" stroke-width="0.5" stroke-linecap="round" stroke-linejoin="round"/>
<path d="M113.707 172.416C113.514 171.44 113.64 170.394 114.051 169.515C114.462 168.636 115.058 167.942 115.955 167.601C116.492 169.554 115.209 171.967 113.707 172.416Z" stroke="#967053" stroke-width="0.5" stroke-linecap="round" stroke-linejoin="round"/>
<path d="M115.955 167.571C115.326 169.144 114.629 170.668 113.857 172.153" stroke="#967053" stroke-width="0.5" stroke-linecap="round" stroke-linejoin="round"/>
<path d="M115.142 175.396C115.41 174.067 116.115 172.866 117.071 172.075C118.028 171.283 119.119 170.854 120.403 171.078C120.05 173.853 117.214 175.914 115.142 175.396Z" stroke="#967053" stroke-width="0.5" stroke-linecap="round" stroke-linejoin="round"/>
<path d="M120.418 171.029C118.832 172.514 117.179 173.892 115.468 175.171" stroke="#967053" stroke-width="0.5" stroke-linecap="round" stroke-linejoin="round"/>
<path d="M48.1243 46.9312C47.4447 48.0448 46.4042 48.8556 45.2631 49.1584C44.1219 49.471 42.9724 49.3928 41.8564 48.6211C43.0815 46.2083 46.3706 45.5441 48.1243 46.9214" stroke="#967053" stroke-width="0.5" stroke-linecap="round" stroke-linejoin="round"/>
<path d="M41.9404 48.6406C43.8787 48.0741 45.8421 47.5661 47.8055 47.1363" stroke="#967053" stroke-width="0.5" stroke-linecap="round" stroke-linejoin="round"/>
<path d="M54.4268 48.7872C53.4032 49.4515 52.1697 49.6664 51.0202 49.3733C49.8707 49.0803 48.8638 48.4355 48.1338 47.1852C50.1308 45.6222 53.3528 46.6577 54.4184 48.7872" stroke="#967053" stroke-width="0.5" stroke-linecap="round" stroke-linejoin="round"/>
<path d="M48.0996 47.2145C50.105 47.5759 52.102 48.0546 54.0654 48.6602" stroke="#967053" stroke-width="0.5" stroke-linecap="round" stroke-linejoin="round"/>
<path d="M48.04 19.2279C49.198 18.9935 50.423 19.267 51.4215 19.9899C52.42 20.7029 53.1919 21.7091 53.5192 23.1646C51.1866 23.8679 48.4512 21.6505 48.04 19.2279Z" stroke="#967053" stroke-width="0.5" stroke-linecap="round" stroke-linejoin="round"/>
<path d="M53.469 23.0767C51.7489 21.8849 50.0539 20.6444 48.3926 19.3354" stroke="#967053" stroke-width="0.5" stroke-linecap="round" stroke-linejoin="round"/>
<path d="M44.6923 12.7319C45.8251 13.1031 46.8236 13.9627 47.4613 15.1056C48.099 16.2485 48.4262 17.538 48.1829 19.0228C45.8167 18.4953 44.1637 15.1252 44.684 12.7319" stroke="#967053" stroke-width="0.5" stroke-linecap="round" stroke-linejoin="round"/>
<path d="M48.225 19.0424C47.0168 17.1375 45.8924 15.1643 44.8604 13.1227" stroke="#967053" stroke-width="0.5" stroke-linecap="round" stroke-linejoin="round"/>
<path d="M79.0946 215.798C79.0526 217.166 78.566 218.504 77.7604 219.491C76.9549 220.477 75.9564 221.151 74.6559 221.22C74.5468 218.416 76.9801 215.759 79.0946 215.798Z" stroke="#967053" stroke-width="0.5" stroke-linecap="round" stroke-linejoin="round"/>
<path d="M74.7314 221.181C76.0823 219.461 77.4836 217.791 78.9268 216.179" stroke="#967053" stroke-width="0.5" stroke-linecap="round" stroke-linejoin="round"/>
<path d="M85.2451 213.327C84.6997 214.538 83.7683 215.505 82.6775 215.993C81.5867 216.482 80.4372 216.589 79.2373 216.013C80.1687 213.424 83.3488 212.242 85.2451 213.327Z" stroke="#967053" stroke-width="0.5" stroke-linecap="round" stroke-linejoin="round"/>
<path d="M79.2119 216.052C81.0579 215.065 82.9542 214.196 84.884 213.444" stroke="#967053" stroke-width="0.5" stroke-linecap="round" stroke-linejoin="round"/>
<path d="M31.2757 172.309C31.2338 173.677 30.7471 175.015 29.9416 176.002C29.1361 176.988 28.1376 177.662 26.837 177.731C26.728 174.927 29.1613 172.27 31.2757 172.309Z" stroke="#967053" stroke-width="0.5" stroke-linecap="round" stroke-linejoin="round"/>
<path d="M26.9126 177.691C28.2635 175.972 29.6647 174.302 31.108 172.69" stroke="#967053" stroke-width="0.5" stroke-linecap="round" stroke-linejoin="round"/>
<path d="M37.4267 169.838C36.8813 171.049 35.9499 172.016 34.8591 172.504C33.7683 172.993 32.6188 173.1 31.4189 172.524C32.3503 169.935 35.5304 168.753 37.4267 169.838Z" stroke="#967053" stroke-width="0.5" stroke-linecap="round" stroke-linejoin="round"/>
<path d="M31.3936 172.553C33.2395 171.567 35.1358 170.697 37.0657 169.945" stroke="#967053" stroke-width="0.5" stroke-linecap="round" stroke-linejoin="round"/>
<path d="M115.291 183.269C116.315 183.924 117.129 185.028 117.523 186.317C117.918 187.606 117.985 188.945 117.465 190.322C115.266 189.189 114.31 185.457 115.291 183.269Z" stroke="#967053" stroke-width="0.5" stroke-linecap="round" stroke-linejoin="round"/>
<path d="M117.497 190.351C116.692 188.183 115.987 185.956 115.383 183.699" stroke="#967053" stroke-width="0.5" stroke-linecap="round" stroke-linejoin="round"/>
<path d="M127.072 197.463C128.037 197.345 129.044 197.648 129.841 198.303C130.638 198.957 131.226 199.836 131.435 201.067C129.472 201.507 127.299 199.494 127.072 197.463Z" stroke="#967053" stroke-width="0.5" stroke-linecap="round" stroke-linejoin="round"/>
<path d="M131.394 200.989C130.018 199.895 128.667 198.762 127.358 197.57" stroke="#967053" stroke-width="0.5" stroke-linecap="round" stroke-linejoin="round"/>
<path d="M128.903 191.524C129.222 192.598 129.188 193.8 128.819 194.855C128.45 195.9 127.846 196.769 126.864 197.287C126.05 195.157 127.25 192.237 128.903 191.524Z" stroke="#967053" stroke-width="0.5" stroke-linecap="round" stroke-linejoin="round"/>
<path d="M126.873 197.326C127.418 195.46 128.048 193.634 128.761 191.856" stroke="#967053" stroke-width="0.5" stroke-linecap="round" stroke-linejoin="round"/>
<path d="M112.894 195.216C113.968 194.317 115.327 193.897 116.644 194.054C117.962 194.21 119.161 194.776 120.11 196.066C118.045 198.117 114.328 197.433 112.894 195.216Z" stroke="#967053" stroke-width="0.5" stroke-linecap="round" stroke-linejoin="round"/>
<path d="M120.017 196.017C117.769 195.802 115.52 195.509 113.288 195.128" stroke="#967053" stroke-width="0.5" stroke-linecap="round" stroke-linejoin="round"/>
<path d="M111.643 186.796C112.633 187.812 113.296 189.257 113.455 190.781C113.623 192.305 113.413 193.8 112.541 195.167C110.359 193.292 110.099 188.915 111.634 186.786" stroke="#967053" stroke-width="0.5" stroke-linecap="round" stroke-linejoin="round"/>
<path d="M112.574 195.216C112.146 192.598 111.836 189.951 111.651 187.294" stroke="#967053" stroke-width="0.5" stroke-linecap="round" stroke-linejoin="round"/>
<path d="M20.0317 17.704C21.0973 18.6125 21.8693 19.9801 22.1629 21.4746C22.4482 22.979 22.3643 24.4833 21.6091 25.9388C19.2849 24.3075 18.6724 19.9801 20.0317 17.6942" stroke="#967053" stroke-width="0.5" stroke-linecap="round" stroke-linejoin="round"/>
<path d="M21.618 25.8314C21.0893 23.2818 20.6195 20.7029 20.2251 18.1143" stroke="#967053" stroke-width="0.5" stroke-linecap="round" stroke-linejoin="round"/>
<path d="M26.5107 13.6697C25.9904 15.0861 25.0171 16.2681 23.8256 16.9323C22.6342 17.5966 21.3504 17.831 19.9575 17.3035C20.805 14.3046 24.2871 12.644 26.5023 13.6697" stroke="#967053" stroke-width="0.5" stroke-linecap="round" stroke-linejoin="round"/>
<path d="M19.9404 17.3524C21.9458 16.0532 24.0015 14.8809 26.1076 13.8455" stroke="#967053" stroke-width="0.5" stroke-linecap="round" stroke-linejoin="round"/>
<path d="M85.9243 202.357C87.1242 203.011 88.1059 204.184 88.6261 205.59C89.1547 206.997 89.3142 208.501 88.8107 210.103C86.2683 209.009 84.9594 204.906 85.9159 202.357" stroke="#967053" stroke-width="0.5" stroke-linecap="round" stroke-linejoin="round"/>
<path d="M88.8109 209.986C87.8711 207.593 86.9985 205.17 86.1846 202.718" stroke="#967053" stroke-width="0.5" stroke-linecap="round" stroke-linejoin="round"/>
<path d="M74.1103 207.671C74.7229 209.038 74.8907 210.66 74.5718 212.155C74.253 213.649 73.5985 214.958 72.3651 215.867C70.9135 213.2 72.0127 209.009 74.1103 207.671Z" stroke="#967053" stroke-width="0.5" stroke-linecap="round" stroke-linejoin="round"/>
<path d="M72.4238 215.769C72.9273 213.209 73.4894 210.66 74.1271 208.14" stroke="#967053" stroke-width="0.5" stroke-linecap="round" stroke-linejoin="round"/>
<path d="M74.4463 207.388C75.5706 206.587 76.9551 206.284 78.2557 206.557C79.5562 206.831 80.7225 207.505 81.5868 208.872C79.3968 210.738 75.7301 209.732 74.4463 207.397" stroke="#967053" stroke-width="0.5" stroke-linecap="round" stroke-linejoin="round"/>
<path d="M81.5025 208.804C79.2705 208.394 77.0554 207.905 74.8486 207.329" stroke="#967053" stroke-width="0.5" stroke-linecap="round" stroke-linejoin="round"/>
<path d="M91.6304 196.965C91.3535 198.469 90.5899 199.846 89.5327 200.755C88.4671 201.673 87.2504 202.191 85.7988 201.976C86.1428 198.84 89.2894 196.437 91.6304 196.965Z" stroke="#967053" stroke-width="0.5" stroke-linecap="round" stroke-linejoin="round"/>
<path d="M85.7822 202.034C87.5359 200.315 89.3651 198.713 91.2697 197.228" stroke="#967053" stroke-width="0.5" stroke-linecap="round" stroke-linejoin="round"/>
<path d="M34.4654 175.963C35.0863 177.32 35.2709 178.942 34.9604 180.436C34.6584 181.931 34.0123 183.25 32.7872 184.178C31.3105 181.531 32.3845 177.33 34.4654 175.963Z" stroke="#967053" stroke-width="0.5" stroke-linecap="round" stroke-linejoin="round"/>
<path d="M32.8457 184.08C33.324 181.511 33.8778 178.961 34.4903 176.431" stroke="#967053" stroke-width="0.5" stroke-linecap="round" stroke-linejoin="round"/>
<path d="M41.7969 175.63C40.7984 176.636 39.4811 177.213 38.1638 177.203C36.8464 177.193 35.5962 176.754 34.5474 175.572C36.4353 173.305 40.1943 173.579 41.7969 175.63Z" stroke="#967053" stroke-width="0.5" stroke-linecap="round" stroke-linejoin="round"/>
<path d="M34.5137 175.601C36.8043 175.454 39.095 175.445 41.3857 175.581" stroke="#967053" stroke-width="0.5" stroke-linecap="round" stroke-linejoin="round"/>
<path d="M46.1357 36.098C46.2616 37.8954 45.8085 39.7416 44.8771 41.1776C43.9541 42.6233 42.7291 43.6881 41.0426 44.0202C40.514 40.3668 43.35 36.4301 46.1273 36.098" stroke="#967053" stroke-width="0.5" stroke-linecap="round" stroke-linejoin="round"/>
<path d="M41.1431 43.942C42.687 41.4413 44.298 38.9992 45.9677 36.6059" stroke="#967053" stroke-width="0.5" stroke-linecap="round" stroke-linejoin="round"/>
<path d="M54.1571 39.7123C52.6803 40.2593 51.0357 40.1519 49.6177 39.429C48.1997 38.7062 47.0418 37.5535 46.3789 35.717C49.3157 34.3006 53.2509 36.6352 54.1571 39.7123Z" stroke="#967053" stroke-width="0.5" stroke-linecap="round" stroke-linejoin="round"/>
<path d="M46.3291 35.7366C48.8463 36.8209 51.3132 38.0517 53.7213 39.4388" stroke="#967053" stroke-width="0.5" stroke-linecap="round" stroke-linejoin="round"/>
<path d="M62.5223 19.4428C61.0456 19.9898 59.401 19.8824 57.983 19.1595C56.5649 18.4367 55.407 17.284 54.7441 15.4475C57.6809 14.0311 61.6161 16.3657 62.5223 19.4428Z" stroke="#967053" stroke-width="0.5" stroke-linecap="round" stroke-linejoin="round"/>
<path d="M54.6943 15.4572C57.2115 16.5415 59.6784 17.7724 62.0866 19.1595" stroke="#967053" stroke-width="0.5" stroke-linecap="round" stroke-linejoin="round"/>
<path d="M14.9393 162.433C14.998 163.967 14.5701 165.53 13.7394 166.722C12.9087 167.923 11.8431 168.783 10.3999 169.007C10.0475 165.881 12.5647 162.619 14.9393 162.423" stroke="#967053" stroke-width="0.5" stroke-linecap="round" stroke-linejoin="round"/>
<path d="M10.4751 168.959C11.8512 166.878 13.2944 164.846 14.7795 162.873" stroke="#967053" stroke-width="0.5" stroke-linecap="round" stroke-linejoin="round"/>
<path d="M21.6847 165.803C20.4093 166.214 19.0081 166.077 17.825 165.403C16.6335 164.729 15.677 163.713 15.1567 162.121C17.6991 161.017 20.9883 163.146 21.6847 165.803Z" stroke="#967053" stroke-width="0.5" stroke-linecap="round" stroke-linejoin="round"/>
<path d="M15.1069 162.13C17.2298 163.137 19.3023 164.279 21.3161 165.549" stroke="#967053" stroke-width="0.5" stroke-linecap="round" stroke-linejoin="round"/>
<path d="M51.9581 190.107C52.7636 191.328 53.1663 192.891 53.074 194.435C52.9817 195.968 52.5287 197.385 51.4546 198.537C49.6255 196.203 50.1037 191.856 51.9581 190.117" stroke="#967053" stroke-width="0.5" stroke-linecap="round" stroke-linejoin="round"/>
<path d="M51.4883 198.42C51.6058 195.792 51.7903 193.174 52.0421 190.566" stroke="#967053" stroke-width="0.5" stroke-linecap="round" stroke-linejoin="round"/>
<path d="M59.15 188.388C58.311 189.57 57.0859 190.381 55.777 190.625C54.468 190.859 53.1842 190.664 51.9844 189.707C53.5283 187.108 57.2789 186.669 59.15 188.398" stroke="#967053" stroke-width="0.5" stroke-linecap="round" stroke-linejoin="round"/>
<path d="M51.9502 189.746C54.1821 189.169 56.4476 188.73 58.7215 188.427" stroke="#967053" stroke-width="0.5" stroke-linecap="round" stroke-linejoin="round"/>
<path d="M26.0316 165.813C26.6274 167.19 26.77 168.812 26.4344 170.307C26.0988 171.791 25.4275 173.091 24.1773 173.979C22.7593 171.283 23.9172 167.122 26.0316 165.813Z" stroke="#967053" stroke-width="0.5" stroke-linecap="round" stroke-linejoin="round"/>
<path d="M24.2358 173.882C24.7728 171.332 25.3686 168.792 26.0398 166.282" stroke="#967053" stroke-width="0.5" stroke-linecap="round" stroke-linejoin="round"/>
<path d="M33.3731 165.696C32.3578 166.673 31.0237 167.21 29.7064 167.161C28.389 167.112 27.1556 166.634 26.1235 165.432C28.0618 163.224 31.8124 163.605 33.3731 165.706" stroke="#967053" stroke-width="0.5" stroke-linecap="round" stroke-linejoin="round"/>
<path d="M26.082 165.452C28.3727 165.373 30.6634 165.432 32.9456 165.627" stroke="#967053" stroke-width="0.5" stroke-linecap="round" stroke-linejoin="round"/>
<path d="M12.8912 120.917C11.6159 121.337 10.2146 121.191 9.03152 120.517C7.84005 119.843 6.8835 118.827 6.36328 117.244C8.90566 116.141 12.1948 118.26 12.8912 120.917Z" stroke="#967053" stroke-width="0.5" stroke-linecap="round" stroke-linejoin="round"/>
<path d="M6.31348 117.254C8.43632 118.26 10.5088 119.403 12.5226 120.663" stroke="#967053" stroke-width="0.5" stroke-linecap="round" stroke-linejoin="round"/>
<path d="M50.9608 176.636C50.6587 178.131 49.8784 179.499 48.8044 180.388C47.7303 181.276 46.4969 181.775 45.0537 181.54C45.4397 178.414 48.6198 176.07 50.9608 176.636Z" stroke="#967053" stroke-width="0.5" stroke-linecap="round" stroke-linejoin="round"/>
<path d="M45.0366 181.589C46.8154 179.909 48.6698 178.336 50.5913 176.881" stroke="#967053" stroke-width="0.5" stroke-linecap="round" stroke-linejoin="round"/>
<path d="M92.3106 202.777C93.1664 203.158 93.8964 203.91 94.3244 204.857C94.7523 205.805 94.9285 206.831 94.6516 207.964C92.8392 207.358 91.7568 204.584 92.319 202.767" stroke="#967053" stroke-width="0.5" stroke-linecap="round" stroke-linejoin="round"/>
<path d="M94.6351 207.895C93.88 206.293 93.1752 204.672 92.5039 203.021" stroke="#967053" stroke-width="0.5" stroke-linecap="round" stroke-linejoin="round"/>
<path d="M96.0254 198.713C95.8995 199.768 95.4296 200.764 94.7332 201.458C94.0368 202.152 93.2145 202.581 92.1992 202.523C92.2999 200.335 94.3808 198.488 96.0254 198.713Z" stroke="#967053" stroke-width="0.5" stroke-linecap="round" stroke-linejoin="round"/>
<path d="M92.1914 202.562C93.3325 201.273 94.5324 200.051 95.7826 198.909" stroke="#967053" stroke-width="0.5" stroke-linecap="round" stroke-linejoin="round"/>
<path d="M75.1914 194.982C75.0655 196.037 74.5957 197.033 73.8992 197.727C73.2028 198.42 72.3805 198.85 71.3652 198.791C71.4659 196.603 73.5468 194.757 75.1914 194.982Z" stroke="#967053" stroke-width="0.5" stroke-linecap="round" stroke-linejoin="round"/>
<path d="M71.3574 198.83C72.4986 197.541 73.6984 196.32 74.9486 195.177" stroke="#967053" stroke-width="0.5" stroke-linecap="round" stroke-linejoin="round"/>
<path d="M81.3095 220.047C81.4605 221.102 81.2592 222.216 80.7725 223.115C80.2858 224.013 79.6062 224.707 78.6245 225C78.1714 222.87 79.6817 220.399 81.3095 220.047Z" stroke="#967053" stroke-width="0.5" stroke-linecap="round" stroke-linejoin="round"/>
<path d="M78.6758 224.951C79.4897 223.388 80.3371 221.855 81.2266 220.36" stroke="#967053" stroke-width="0.5" stroke-linecap="round" stroke-linejoin="round"/>
<path d="M86.1853 221.747C85.3378 222.148 84.3561 222.177 83.4918 221.825C82.6276 221.474 81.8976 220.858 81.4277 219.813C83.1059 218.817 85.5224 219.979 86.1769 221.747" stroke="#967053" stroke-width="0.5" stroke-linecap="round" stroke-linejoin="round"/>
<path d="M81.4023 219.823C82.9295 220.321 84.4398 220.917 85.9165 221.61" stroke="#967053" stroke-width="0.5" stroke-linecap="round" stroke-linejoin="round"/>
<path d="M18.6552 177.887C18.8062 178.942 18.6049 180.055 18.1182 180.954C17.6315 181.853 16.9519 182.546 15.9702 182.839C15.5171 180.71 17.0274 178.239 18.6552 177.887Z" stroke="#967053" stroke-width="0.5" stroke-linecap="round" stroke-linejoin="round"/>
<path d="M16.021 182.8C16.8349 181.238 17.6824 179.704 18.5718 178.209" stroke="#967053" stroke-width="0.5" stroke-linecap="round" stroke-linejoin="round"/>
<path d="M12.7324 150.438C12.8834 151.493 12.682 152.606 12.1954 153.505C11.7087 154.404 11.029 155.097 10.0473 155.39C9.59424 153.261 11.1046 150.789 12.7324 150.438Z" stroke="#967053" stroke-width="0.5" stroke-linecap="round" stroke-linejoin="round"/>
<path d="M10.0981 155.351C10.912 153.788 11.7595 152.254 12.6489 150.76" stroke="#967053" stroke-width="0.5" stroke-linecap="round" stroke-linejoin="round"/>
<path d="M15.8878 174.839C14.9061 175.445 13.7314 175.611 12.649 175.308C11.5666 175.005 10.6268 174.37 9.95557 173.169C11.877 171.733 14.9061 172.798 15.8794 174.839" stroke="#967053" stroke-width="0.5" stroke-linecap="round" stroke-linejoin="round"/>
<path d="M10.0312 173.218C11.8856 173.696 13.7232 174.243 15.5439 174.859" stroke="#967053" stroke-width="0.5" stroke-linecap="round" stroke-linejoin="round"/>
<path d="M23.5402 179.596C22.6928 179.997 21.7111 180.026 20.8468 179.675C19.9826 179.323 19.2526 178.707 18.7827 177.662C20.4609 176.666 22.8774 177.828 23.5319 179.596" stroke="#967053" stroke-width="0.5" stroke-linecap="round" stroke-linejoin="round"/>
<path d="M18.7573 177.662C20.2844 178.16 21.7948 178.756 23.2715 179.45" stroke="#967053" stroke-width="0.5" stroke-linecap="round" stroke-linejoin="round"/>
<path d="M46.5545 57.9109C46.0763 58.8194 45.2959 59.513 44.4233 59.8255C43.5507 60.1381 42.6445 60.1381 41.7383 59.6106C42.5857 57.6569 45.1281 56.9341 46.5545 57.9109Z" stroke="#967053" stroke-width="0.5" stroke-linecap="round" stroke-linejoin="round"/>
<path d="M41.8052 59.6106C43.2987 59.0538 44.8007 58.5459 46.3194 58.0868" stroke="#967053" stroke-width="0.5" stroke-linecap="round" stroke-linejoin="round"/>
<path d="M49.29 62.9222C48.4173 62.5803 47.6706 61.8575 47.2091 60.9295C46.7476 60.0015 46.5462 58.9856 46.7895 57.8329C48.6187 58.3604 49.785 61.076 49.29 62.9222Z" stroke="#967053" stroke-width="0.5" stroke-linecap="round" stroke-linejoin="round"/>
<path d="M46.7554 57.8133C47.628 59.3567 48.4335 60.9587 49.1635 62.5998" stroke="#967053" stroke-width="0.5" stroke-linecap="round" stroke-linejoin="round"/>
<path d="M47.889 51.3856C47.5115 52.3624 46.8234 53.1634 45.9843 53.603C45.1453 54.0426 44.2559 54.1794 43.2993 53.7984C43.9286 51.7275 46.3619 50.6432 47.889 51.3954" stroke="#967053" stroke-width="0.5" stroke-linecap="round" stroke-linejoin="round"/>
<path d="M43.3662 53.7789C44.7842 52.9974 46.219 52.2745 47.6706 51.5908" stroke="#967053" stroke-width="0.5" stroke-linecap="round" stroke-linejoin="round"/>
<path d="M51.153 55.9377C50.2552 55.7228 49.4245 55.1269 48.8708 54.2771C48.317 53.4272 47.9981 52.4406 48.1072 51.2684C49.9783 51.5126 51.4383 54.0426 51.153 55.9377Z" stroke="#967053" stroke-width="0.5" stroke-linecap="round" stroke-linejoin="round"/>
<path d="M48.082 51.2587C49.1225 52.6653 50.0958 54.1306 51.002 55.6447" stroke="#967053" stroke-width="0.5" stroke-linecap="round" stroke-linejoin="round"/>
<path d="M53.2593 8.50219C52.7558 7.61326 52.546 6.49966 52.6803 5.44467C52.8146 4.38968 53.1921 3.43237 53.9893 2.69974C55.1472 4.42875 54.6269 7.40812 53.2677 8.50219" stroke="#967053" stroke-width="0.5" stroke-linecap="round" stroke-linejoin="round"/>
<path d="M53.9556 2.76807C53.7626 4.57523 53.5109 6.38239 53.2256 8.17001" stroke="#967053" stroke-width="0.5" stroke-linecap="round" stroke-linejoin="round"/>
<path d="M48.1992 9.25431C48.8369 8.4826 49.7179 7.99418 50.6325 7.90626C51.5471 7.81835 52.4281 8.03325 53.2169 8.77565C52.0338 10.4754 49.4159 10.5535 48.1992 9.25431Z" stroke="#967053" stroke-width="0.5" stroke-linecap="round" stroke-linejoin="round"/>
<path d="M53.2423 8.75613C51.6648 9.01988 50.0874 9.18595 48.4932 9.26409" stroke="#967053" stroke-width="0.5" stroke-linecap="round" stroke-linejoin="round"/>
<path d="M42.8969 29.1722C43.2661 30.149 43.3164 31.2821 43.0395 32.2981C42.7627 33.314 42.2592 34.1834 41.3698 34.7499C40.4636 32.8255 41.395 29.9829 42.8969 29.1624" stroke="#967053" stroke-width="0.5" stroke-linecap="round" stroke-linejoin="round"/>
<path d="M41.4116 34.6913C41.8563 32.9427 42.3514 31.2137 42.8884 29.4945" stroke="#967053" stroke-width="0.5" stroke-linecap="round" stroke-linejoin="round"/>
<path d="M47.9908 29.3871C47.2524 30.022 46.321 30.3346 45.4064 30.2467C44.4919 30.1588 43.6528 29.7778 42.9731 28.8987C44.3828 27.4432 46.9671 27.8632 47.9908 29.3773" stroke="#967053" stroke-width="0.5" stroke-linecap="round" stroke-linejoin="round"/>
<path d="M42.9478 28.9279C44.5336 28.967 46.1278 29.1038 47.7053 29.3285" stroke="#967053" stroke-width="0.5" stroke-linecap="round" stroke-linejoin="round"/>
<path d="M32.1809 16.1997C32.2396 17.2645 31.9544 18.3488 31.3922 19.1986C30.83 20.0387 30.1 20.6541 29.0931 20.8299C28.8162 18.6614 30.5279 16.3658 32.1809 16.1997Z" stroke="#967053" stroke-width="0.5" stroke-linecap="round" stroke-linejoin="round"/>
<path d="M29.0933 20.869C29.9911 19.3354 30.9476 17.8603 31.9797 16.4537" stroke="#967053" stroke-width="0.5" stroke-linecap="round" stroke-linejoin="round"/>
<path d="M8.90521 128.38C9.05625 129.435 8.85487 130.549 8.36821 131.448C7.88155 132.346 7.2019 133.04 6.22019 133.333C5.76709 131.203 7.27742 128.732 8.90521 128.38Z" stroke="#967053" stroke-width="0.5" stroke-linecap="round" stroke-linejoin="round"/>
<path d="M6.271 133.284C7.08489 131.721 7.93235 130.188 8.82177 128.693" stroke="#967053" stroke-width="0.5" stroke-linecap="round" stroke-linejoin="round"/>
<path d="M13.7902 130.08C12.9428 130.481 11.9611 130.51 11.0968 130.158C10.2326 129.807 9.50259 129.191 9.03271 128.146C10.7109 127.15 13.1274 128.312 13.7819 130.08" stroke="#967053" stroke-width="0.5" stroke-linecap="round" stroke-linejoin="round"/>
<path d="M9.00732 128.156C10.5344 128.654 12.0448 129.25 13.5215 129.943" stroke="#967053" stroke-width="0.5" stroke-linecap="round" stroke-linejoin="round"/>
<path d="M23.4055 154.843C22.558 155.244 21.5763 155.273 20.7121 154.921C19.8478 154.57 19.1178 153.954 18.6479 152.909C20.3261 151.913 22.7426 153.075 23.3971 154.843" stroke="#967053" stroke-width="0.5" stroke-linecap="round" stroke-linejoin="round"/>
<path d="M18.6226 152.919C20.1497 153.417 21.66 154.013 23.1368 154.706" stroke="#967053" stroke-width="0.5" stroke-linecap="round" stroke-linejoin="round"/>
<path d="M57.7569 192.94C58.2939 193.809 58.5457 194.903 58.4534 195.968C58.3611 197.033 58.017 198 57.2535 198.772C56.0284 197.101 56.4396 194.102 57.7569 192.94Z" stroke="#967053" stroke-width="0.5" stroke-linecap="round" stroke-linejoin="round"/>
<path d="M57.2793 198.703C57.4052 196.887 57.5814 195.07 57.8079 193.262" stroke="#967053" stroke-width="0.5" stroke-linecap="round" stroke-linejoin="round"/>
<path d="M45.9855 182.058C46.9001 182.097 47.8062 182.537 48.4691 183.269C49.132 184.002 49.5851 184.91 49.6438 186.092C47.7643 186.2 45.9687 183.992 45.9855 182.068" stroke="#967053" stroke-width="0.5" stroke-linecap="round" stroke-linejoin="round"/>
<path d="M49.6099 186.014C48.452 184.783 47.3276 183.513 46.2368 182.204" stroke="#967053" stroke-width="0.5" stroke-linecap="round" stroke-linejoin="round"/>
<path d="M62.7747 191.934C62.1706 192.735 61.3063 193.262 60.4001 193.399C59.4939 193.536 58.5961 193.36 57.7822 192.667C58.9066 190.908 61.5077 190.693 62.7747 191.934Z" stroke="#967053" stroke-width="0.5" stroke-linecap="round" stroke-linejoin="round"/>
<path d="M57.7568 192.696C59.3175 192.354 60.895 192.1 62.4808 191.953" stroke="#967053" stroke-width="0.5" stroke-linecap="round" stroke-linejoin="round"/>
<path d="M56.8761 177.115C57.044 178.16 56.8761 179.284 56.4063 180.202C55.9364 181.12 55.2735 181.833 54.3002 182.146C53.7968 180.036 55.2567 177.516 56.8845 177.115" stroke="#967053" stroke-width="0.5" stroke-linecap="round" stroke-linejoin="round"/>
<path d="M54.3008 182.185C55.0308 180.544 55.8363 178.942 56.7089 177.389" stroke="#967053" stroke-width="0.5" stroke-linecap="round" stroke-linejoin="round"/>
<path d="M105.239 193.927C105.701 195.079 105.785 196.437 105.474 197.658C105.164 198.879 104.577 199.925 103.528 200.628C102.412 198.362 103.469 194.943 105.239 193.927Z" stroke="#967053" stroke-width="0.5" stroke-linecap="round" stroke-linejoin="round"/>
<path d="M103.545 200.667C103.973 198.518 104.493 196.388 105.114 194.308" stroke="#967053" stroke-width="0.5" stroke-linecap="round" stroke-linejoin="round"/>
<path d="M3.55273 1C9.01508 11.1299 18.1861 18.4562 28.2801 20.7322C38.3658 23.0083 49.2317 20.2145 57.5469 13.191" stroke="#967053" stroke-width="0.5" stroke-linecap="round" stroke-linejoin="round"/>
<path d="M31.9219 21.3281C46.2364 24.1121 52.1938 46.5697 45.3638 61.4959" stroke="#967053" stroke-width="0.5" stroke-linecap="round" stroke-linejoin="round"/>
<path d="M50.75 17.6845C54.0727 15.3987 54.7272 9.13713 51.438 6.7634" stroke="#967053" stroke-width="0.5" stroke-linecap="round" stroke-linejoin="round"/>
</svg>
