<svg width="61" height="60" viewBox="0 0 61 60" fill="none" xmlns="http://www.w3.org/2000/svg">
<g filter="url(#filter0_d_333_5875)">
<path d="M27.1348 8.47094C28.0607 8.41602 28.9905 8.43647 29.9178 8.43646L36.4785 8.43584C37.9753 8.43442 38.774 8.42249 39.9748 9.49575C41.8762 11.1953 41.4413 13.8208 41.4399 16.1118C41.439 17.6807 41.4654 19.2536 41.4239 20.8217C39.1628 20.1403 36.7258 21.0029 35.2917 22.8457C35.1577 23.0179 35.0003 23.3116 34.8381 23.4399C34.651 22.9233 35.9526 23.3963 34.2196 21.752C33.1137 21.7708 33.6214 22.2512 32.9495 22.5859C35.455 19.5376 33.3849 14.3435 29.0443 14.2936L29.0603 14.2497C29.1988 14.2077 29.3938 14.2952 29.5013 14.1889C29.2279 13.9916 29.35 13.7167 29.2834 13.4177C29.1873 12.9854 28.4775 12.4028 28.818 12.1495L28.8403 12.1332C28.7161 11.8536 28.465 11.9418 28.7286 11.6007C29.3337 11.6022 31.1295 11.3786 30.1823 10.4069C29.7387 9.95175 28.7807 10.0785 28.183 10.0768C28.2004 10.0543 28.7174 8.9063 28.7333 8.86357L28.6661 8.72032C28.6943 8.66296 28.7309 8.61559 28.7715 8.56706L28.7552 8.53296C28.2207 8.43176 27.6723 8.54512 27.1348 8.47094Z" fill="#FFDDD2"/>
<path d="M43.7911 23.1694C46.8535 20.5499 51.155 22.8059 50.8128 26.7772C50.6808 28.309 49.6806 29.7404 48.7416 30.9062C48.554 31.1391 48.3498 31.4969 48.0853 31.643C47.6536 32.3553 45.8341 33.8269 45.1341 34.4298C44.5496 34.9333 44.0033 35.5665 43.1779 35.6053C41.206 35.6981 36.7922 30.391 36.0766 28.8189C34.7431 25.8893 36.4057 22.1908 39.6685 22.0587C41.0862 22.0013 42.0637 22.8778 43.0366 23.7763C43.2766 23.5657 43.5335 23.3583 43.7911 23.1694Z" fill="url(#paint0_linear_333_5875)"/>
<path d="M34.838 23.4399C31.9556 28.4453 36.8318 33.4153 40.6372 36.2499C41.7095 37.0487 41.439 36.7076 41.4397 38.1198L41.4403 45.3414C41.4411 46.1574 41.4799 46.9946 41.4323 47.8085C41.3235 49.6727 39.7559 51.3837 37.9126 51.6619C36.9385 51.8088 35.848 51.7312 34.859 51.7312L21.2563 51.7299C17.9618 51.7298 13.308 52.503 12.7937 47.8892C12.7266 47.2877 12.7582 46.6598 12.7585 46.0545L12.759 14.9814C12.7584 14.1599 12.721 13.3174 12.7762 12.4982C12.896 10.7215 14.3179 8.94432 16.0879 8.56098C16.9072 8.38354 17.8105 8.43679 18.645 8.43638L24.949 8.43609C25.6767 8.43631 26.4084 8.41642 27.1346 8.47095C27.6722 8.54513 28.2205 8.43177 28.7551 8.53297L28.7714 8.56707C28.7307 8.6156 28.6942 8.66297 28.6659 8.72033L28.7332 8.86358C28.7172 8.90631 28.2003 10.0543 28.1828 10.0768C28.7806 10.0785 29.7385 9.95176 30.1822 10.4069C31.1293 11.3786 29.3335 11.6022 28.7285 11.6007C28.4648 11.9418 28.716 11.8536 28.8401 12.1332L28.8178 12.1495C28.4773 12.4029 29.1872 12.9854 29.2833 13.4177C29.3498 13.7168 29.2278 13.9916 29.5012 14.1889C29.3936 14.2952 29.1986 14.2077 29.0602 14.2497L29.0441 14.2936C33.3847 14.3435 35.4548 19.5376 32.9494 22.5859C33.6213 22.2512 33.1135 21.7708 34.2195 21.752C35.9525 23.3964 34.6508 22.9233 34.838 23.4399ZM22.1211 31.6812C19.6876 31.9494 19.5204 33.6322 19.5197 35.5099L19.5196 41.4118C19.5205 43.2266 19.3848 45.373 21.8044 45.7639C22.2784 45.8404 22.7953 45.8068 23.2754 45.8066L29.7644 45.8051C30.5619 45.8051 31.3663 45.826 32.1629 45.7887C34.6401 45.4524 34.8291 44.1412 34.8217 42.0466L34.8221 35.8134C34.8228 35.1601 34.8757 34.4528 34.7792 33.8069C34.4287 31.4629 31.8693 31.6648 30.1603 31.6651L23.6354 31.6653C23.1408 31.6649 22.6117 31.6283 22.1211 31.6812ZM29.0441 14.2936C27.8761 14.3674 27.5743 14.6915 26.638 15.0144C21.1995 12.2571 17.4182 18.7459 20.1529 22.2362C20.5669 22.7646 21.0451 23.2404 21.5147 23.7186L23.1974 25.4094C24.3007 26.5008 25.7274 28.5521 27.4665 27.8712C28.3783 27.5142 29.4704 26.1819 30.1432 25.4896L32.9494 22.5859C35.4548 19.5376 33.3847 14.3435 29.0441 14.2936ZM28.1828 10.0768L25.7207 10.0756C25.0365 10.0757 23.6032 9.87638 23.6326 10.9436C23.6591 11.9093 25.004 11.6063 25.618 11.6051C26.6546 11.6034 27.6921 11.6138 28.7285 11.6007C29.3335 11.6022 31.1293 11.3786 30.1822 10.4069C29.7385 9.95176 28.7806 10.0785 28.1828 10.0768Z" fill="url(#paint1_linear_333_5875)"/>
<g clip-path="url(#clip0_333_5875)">
<path d="M24.7389 34.1039V34.7508C24.7389 34.8694 24.6418 34.9664 24.5232 34.9664H23.2295V36.2602C23.2295 36.3788 23.1325 36.4758 23.0139 36.4758H22.367C22.2484 36.4758 22.1514 36.3788 22.1514 36.2602V34.1039C22.1514 33.9853 22.2484 33.8883 22.367 33.8883H24.5232C24.6418 33.8883 24.7389 33.9853 24.7389 34.1039ZM24.5232 42.7289H23.2295V41.4352C23.2295 41.3166 23.1325 41.2196 23.0139 41.2196H22.367C22.2484 41.2196 22.1514 41.3166 22.1514 41.4352V43.5914C22.1514 43.71 22.2484 43.8071 22.367 43.8071H24.5232C24.6418 43.8071 24.7389 43.71 24.7389 43.5914V42.9446C24.7389 42.826 24.6418 42.7289 24.5232 42.7289ZM31.8545 33.8883H29.6982C29.5796 33.8883 29.4826 33.9853 29.4826 34.1039V34.7508C29.4826 34.8694 29.5796 34.9664 29.6982 34.9664H30.992V36.2602C30.992 36.3788 31.089 36.4758 31.2076 36.4758H31.8545C31.9731 36.4758 32.0701 36.3788 32.0701 36.2602V34.1039C32.0701 33.9853 31.9731 33.8883 31.8545 33.8883ZM31.8545 41.2196H31.2076C31.089 41.2196 30.992 41.3166 30.992 41.4352V42.7289H29.6982C29.5796 42.7289 29.4826 42.826 29.4826 42.9446V43.5914C29.4826 43.71 29.5796 43.8071 29.6982 43.8071H31.8545C31.9731 43.8071 32.0701 43.71 32.0701 43.5914V41.4352C32.0701 41.3166 31.9731 41.2196 31.8545 41.2196ZM26.4639 35.8289V37.9852C26.4639 38.1038 26.3668 38.2008 26.2482 38.2008H24.092C23.9734 38.2008 23.8764 38.1038 23.8764 37.9852V35.8289C23.8764 35.7103 23.9734 35.6133 24.092 35.6133H26.2482C26.3668 35.6133 26.4639 35.7103 26.4639 35.8289ZM25.6014 36.9071C25.6014 36.6699 25.4073 36.4758 25.1701 36.4758C24.9329 36.4758 24.7389 36.6699 24.7389 36.9071C24.7389 37.1442 24.9329 37.3383 25.1701 37.3383C25.4073 37.3383 25.6014 37.1442 25.6014 36.9071ZM30.3451 41.8664V40.7883C30.3451 40.6697 30.2481 40.5727 30.1295 40.5727C30.0109 40.5727 29.9139 40.6697 29.9139 40.7883V41.6508H29.0514C28.9328 41.6508 28.8357 41.7478 28.8357 41.8664C28.8357 41.985 28.9328 42.0821 29.0514 42.0821H30.1295C30.2481 42.0821 30.3451 41.985 30.3451 41.8664ZM30.3451 39.9258V38.8477C30.3451 38.7291 30.2481 38.6321 30.1295 38.6321H27.9732C27.8546 38.6321 27.7576 38.7291 27.7576 38.8477C27.7576 38.9663 27.8546 39.0633 27.9732 39.0633H29.9139V39.9258C29.9139 40.0444 30.0109 40.1414 30.1295 40.1414C30.2481 40.1414 30.3451 40.0444 30.3451 39.9258ZM29.4826 40.7883V39.9258C29.4826 39.8072 29.3856 39.7102 29.267 39.7102H27.3264V38.8477C27.3264 38.7291 27.2293 38.6321 27.1107 38.6321C26.9921 38.6321 26.8951 38.7291 26.8951 38.8477V39.9258C26.8951 40.0444 26.9921 40.1414 27.1107 40.1414H29.0514V40.5727H28.1889C28.0703 40.5727 27.9732 40.6697 27.9732 40.7883C27.9732 40.9069 28.0703 41.0039 28.1889 41.0039H29.267C29.3856 41.0039 29.4826 40.9069 29.4826 40.7883ZM25.1701 38.8477C25.1701 38.7291 25.0731 38.6321 24.9545 38.6321H24.092C23.9734 38.6321 23.8764 38.7291 23.8764 38.8477C23.8764 38.9663 23.9734 39.0633 24.092 39.0633H24.9545C25.0731 39.0633 25.1701 38.9663 25.1701 38.8477ZM26.4639 38.8477C26.4639 38.7291 26.3668 38.6321 26.2482 38.6321H25.6014C25.4828 38.6321 25.3857 38.7291 25.3857 38.8477C25.3857 38.9663 25.4828 39.0633 25.6014 39.0633H26.2482C26.3668 39.0633 26.4639 38.9663 26.4639 38.8477ZM27.3264 36.2602V35.8289C27.3264 35.7103 27.2293 35.6133 27.1107 35.6133C26.9921 35.6133 26.8951 35.7103 26.8951 35.8289V36.2602C26.8951 36.3788 26.9921 36.4758 27.1107 36.4758C27.2293 36.4758 27.3264 36.3788 27.3264 36.2602ZM28.4045 41.8664C28.4045 41.7478 28.3075 41.6508 28.1889 41.6508H27.3264V40.7883C27.3264 40.6697 27.2293 40.5727 27.1107 40.5727C26.9921 40.5727 26.8951 40.6697 26.8951 40.7883V41.8664C26.8951 41.985 26.9921 42.0821 27.1107 42.0821H28.1889C28.3075 42.0821 28.4045 41.985 28.4045 41.8664ZM27.3264 37.9852V36.9071C27.3264 36.7885 27.2293 36.6914 27.1107 36.6914C26.9921 36.6914 26.8951 36.7885 26.8951 36.9071V37.9852C26.8951 38.1038 26.9921 38.2008 27.1107 38.2008C27.2293 38.2008 27.3264 38.1038 27.3264 37.9852ZM30.3451 35.8289V37.9852C30.3451 38.1038 30.2481 38.2008 30.1295 38.2008H27.9732C27.8546 38.2008 27.7576 38.1038 27.7576 37.9852V35.8289C27.7576 35.7103 27.8546 35.6133 27.9732 35.6133H30.1295C30.2481 35.6133 30.3451 35.7103 30.3451 35.8289ZM29.4826 36.9071C29.4826 36.6699 29.2886 36.4758 29.0514 36.4758C28.8142 36.4758 28.6201 36.6699 28.6201 36.9071C28.6201 37.1442 28.8142 37.3383 29.0514 37.3383C29.2886 37.3383 29.4826 37.1442 29.4826 36.9071ZM26.4639 39.7102V41.8664C26.4639 41.985 26.3668 42.0821 26.2482 42.0821H24.092C23.9734 42.0821 23.8764 41.985 23.8764 41.8664V39.7102C23.8764 39.5916 23.9734 39.4946 24.092 39.4946H26.2482C26.3668 39.4946 26.4639 39.5916 26.4639 39.7102ZM25.6014 40.7883C25.6014 40.5511 25.4073 40.3571 25.1701 40.3571C24.9329 40.3571 24.7389 40.5511 24.7389 40.7883C24.7389 41.0255 24.9329 41.2196 25.1701 41.2196C25.4073 41.2196 25.6014 41.0255 25.6014 40.7883Z" fill="url(#paint2_linear_333_5875)"/>
</g>
<path d="M24.2821 15.8048C25.728 15.7697 26.1448 16.8378 26.7399 16.8535C27.1182 16.8635 27.6728 16.2803 28.0291 16.0911C30.6633 14.6922 33.432 18.312 32.1791 20.9333C31.7015 21.933 29.4177 23.8703 28.5452 24.7946C28.0191 25.3406 27.4864 26.1404 26.7289 26.3554C25.9231 26.1072 24.4299 24.3222 23.7771 23.6813C23.0907 23.0074 21.8354 21.9683 21.3399 21.2297C19.9509 19.1593 21.6353 15.9925 24.2821 15.8048Z" fill="url(#paint3_linear_333_5875)"/>
</g>
<defs>
<filter id="filter0_d_333_5875" x="-3.6665" y="0" width="68" height="68" filterUnits="userSpaceOnUse" color-interpolation-filters="sRGB">
<feFlood flood-opacity="0" result="BackgroundImageFix"/>
<feColorMatrix in="SourceAlpha" type="matrix" values="0 0 0 0 0 0 0 0 0 0 0 0 0 0 0 0 0 0 127 0" result="hardAlpha"/>
<feOffset dy="4"/>
<feGaussianBlur stdDeviation="2"/>
<feComposite in2="hardAlpha" operator="out"/>
<feColorMatrix type="matrix" values="0 0 0 0 0 0 0 0 0 0 0 0 0 0 0 0 0 0 0.25 0"/>
<feBlend mode="normal" in2="BackgroundImageFix" result="effect1_dropShadow_333_5875"/>
<feBlend mode="normal" in="SourceGraphic" in2="effect1_dropShadow_333_5875" result="shape"/>
</filter>
<linearGradient id="paint0_linear_333_5875" x1="48.8288" y1="22.3425" x2="37.8899" y2="31.4733" gradientUnits="userSpaceOnUse">
<stop stop-color="#FFDDD2"/>
<stop offset="1" stop-color="#E378B7"/>
</linearGradient>
<linearGradient id="paint1_linear_333_5875" x1="8.7987" y1="43.2192" x2="38.3919" y2="21.9985" gradientUnits="userSpaceOnUse">
<stop stop-color="#E378B7"/>
<stop offset="1" stop-color="#FFDDD2"/>
</linearGradient>
<linearGradient id="paint2_linear_333_5875" x1="14.601" y1="50.9473" x2="9.2895" y2="14.4423" gradientUnits="userSpaceOnUse">
<stop stop-color="#E47CB8"/>
<stop offset="1" stop-color="#FFDDD2"/>
</linearGradient>
<linearGradient id="paint3_linear_333_5875" x1="22.9624" y1="22.9613" x2="30.5649" y2="15.9674" gradientUnits="userSpaceOnUse">
<stop stop-color="#E378B7"/>
<stop offset="1" stop-color="#FFDDD2"/>
</linearGradient>
<clipPath id="clip0_333_5875">
<rect width="10.7812" height="10.7812" fill="white" transform="translate(21.7202 33.457)"/>
</clipPath>
</defs>
</svg>
