<svg width="60" height="60" viewBox="0 0 60 60" fill="none" xmlns="http://www.w3.org/2000/svg">
<path d="M35.4985 33.2936C39.9374 33.0821 40.2338 36.4153 41.2492 36.4364C41.7991 36.4479 42.4646 35.2141 42.9258 34.7556C46.2502 31.4518 51.6314 34.2458 51.5332 39.0208C51.4599 42.5852 48.8182 45.8384 46.3662 48.1913C45.8213 48.7091 45.2436 49.1955 44.6736 49.6851C42.3659 51.6676 41.2209 52.7992 38.5418 50.5982C35.91 48.4359 32.911 45.572 31.5941 42.3709C30.0687 38.663 30.9328 33.7098 35.4985 33.2936Z" fill="url(#paint0_linear_333_5864)"/>
<path d="M34.1472 10.3867C36.4036 10.4319 38.668 10.3976 40.9255 10.397L42.3645 10.3954C44.959 10.3719 47.1468 11.1128 47.7588 14.0635C47.9145 14.8142 48.2499 18.7562 47.4636 19.2351C47.1783 19.2645 46.8754 19.2353 46.588 19.2333L28.7498 19.2307C26.8886 19.2309 25.0188 19.2704 23.1591 19.2174C22.0877 19.2482 21.0129 19.2307 19.941 19.2307L11.3555 19.2332C10.8504 19.2334 10.3062 19.277 9.80844 19.2082C9.31478 18.8822 9.48275 18.3678 9.49653 17.8633C9.55728 15.6431 9.03313 13.5435 10.7611 11.7628C12.1977 10.2824 13.6392 10.3946 15.53 10.395L28.808 10.3965C30.5866 10.3965 32.3692 10.4222 34.1472 10.3867ZM14.9648 14.1612C14.5874 14.2694 14.4259 14.553 14.329 14.9048C14.4965 15.5603 14.7744 15.636 15.4066 15.6535C17.2048 15.7036 19.0165 15.6573 20.8161 15.6577L32.968 15.6521C33.3503 15.6485 33.7371 15.6878 34.1179 15.6521C35.1075 15.427 34.9756 14.1919 33.9885 14.1628C32.6926 14.1244 31.3819 14.1669 30.0846 14.1669L15.6587 14.164C15.4319 14.1628 15.1901 14.1408 14.9648 14.1612ZM37.447 14.1873C36.2773 14.5824 36.6259 15.9854 37.8592 15.7998C38.2554 15.6404 38.5061 15.3887 38.6361 14.9862C38.4418 14.3873 38.0718 14.1235 37.447 14.1873Z" fill="url(#paint1_linear_333_5864)"/>
<path d="M41.6106 14.158C42.8582 14.054 42.9823 15.4117 41.9054 15.8232C40.7279 16.0325 40.4747 14.5478 41.6106 14.158Z" fill="#283618"/>
<path fill-rule="evenodd" clip-rule="evenodd" d="M34.1441 20.634C33.1265 20.6428 32.1061 20.6516 31.0938 20.6103C29.8282 20.6584 28.5533 20.6471 27.2815 20.6357C26.7297 20.6308 26.1785 20.6258 25.6288 20.6258L12.1904 20.6256C12.0433 20.6256 11.8616 20.6143 11.6624 20.602C10.774 20.5467 9.53955 20.47 9.4952 21.2819C9.46926 21.7556 9.48025 22.2376 9.49121 22.7181C9.49768 23.0017 9.50413 23.2847 9.50298 23.5653L9.50092 35.5299C9.50084 35.8578 9.49768 36.1868 9.49452 36.5164C9.48657 37.3439 9.4786 38.1744 9.5193 38.9967C9.61745 40.9807 11.0106 42.9484 13.041 43.3121C13.4925 43.393 13.965 43.3831 14.4298 43.3734H14.4299H14.43H14.4301C14.5772 43.3703 14.7235 43.3673 14.8681 43.3671L25.6585 43.3667C26.0867 43.3668 26.5154 43.3642 26.9443 43.3617L26.9449 43.3617H26.945H26.945C27.9955 43.3555 29.0472 43.3492 30.0954 43.3811L30.4682 43.3782C29.4496 41.1366 29.006 38.5558 29.8848 36.1878C31.7444 31.1775 37.7788 30.243 41.2615 34.3521C42.6365 32.3585 45.5744 31.4196 47.8961 32.0524C47.8632 31.4786 47.8755 30.8927 47.8877 30.3097V30.3096V30.3095C47.8939 30.0121 47.9002 29.7155 47.9004 29.4217L47.8997 22.1669L47.8997 21.9896C47.9 21.2611 47.9002 20.9137 47.7269 20.7511C47.5689 20.6028 47.2668 20.6082 46.6892 20.6184C46.5324 20.6212 46.3553 20.6243 46.1553 20.6248L35.4238 20.6266C34.9983 20.6266 34.5714 20.6303 34.1441 20.634ZM15.1173 24.2578C14.6642 24.2578 14.297 24.625 14.297 25.0781C14.297 25.5311 14.6642 25.8984 15.1173 25.8984H33.6329C34.086 25.8984 34.4532 25.5311 34.4532 25.0781C34.4532 24.625 34.086 24.2578 33.6329 24.2578H15.1173ZM14.297 28.0663C14.297 27.6133 14.6642 27.246 15.1173 27.246H33.6329C34.086 27.246 34.4532 27.6133 34.4532 28.0663C34.4532 28.5194 34.086 28.8867 33.6329 28.8867H15.1173C14.6642 28.8867 14.297 28.5194 14.297 28.0663ZM15.4689 30.3515C14.8216 30.3515 14.297 30.8762 14.297 31.5234C14.297 32.1706 14.8216 32.6953 15.4689 32.6953H21.9142C22.5614 32.6953 23.086 32.1706 23.086 31.5234C23.086 30.8762 22.5614 30.3515 21.9142 30.3515H15.4689Z" fill="url(#paint2_linear_333_5864)"/>
<defs>
<linearGradient id="paint0_linear_333_5864" x1="32.6947" y1="44.8543" x2="51.2307" y2="37.045" gradientUnits="userSpaceOnUse">
<stop stop-color="#E378B7"/>
<stop offset="1" stop-color="#FFDDD2"/>
</linearGradient>
<linearGradient id="paint1_linear_333_5864" x1="10.2393" y1="21.0539" x2="46.3823" y2="9.79174" gradientUnits="userSpaceOnUse">
<stop stop-color="#E378B7"/>
<stop offset="1" stop-color="#FFDDD2"/>
</linearGradient>
<linearGradient id="paint2_linear_333_5864" x1="11.0527" y1="42.2403" x2="42.0219" y2="14.4913" gradientUnits="userSpaceOnUse">
<stop stop-color="#E378B7"/>
<stop offset="1" stop-color="#FFDDD2"/>
</linearGradient>
</defs>
</svg>
