<svg width="61" height="60" viewBox="0 0 61 60" fill="none" xmlns="http://www.w3.org/2000/svg">
<path d="M32.8306 10.403C33.2427 9.99239 33.4187 9.49064 34.0757 9.82261C34.3292 10.7952 33.4141 10.7258 33.2523 10.8237C33.0998 10.6997 32.9663 10.5452 32.8306 10.403Z" fill="#FFDDD2"/>
<path d="M30.5049 6.77899C33.2743 6.67189 34.0904 10.866 30.8249 11.1499C27.6061 11.3832 27.7912 7.07183 30.5049 6.77899Z" fill="#E378B7"/>
<path fill-rule="evenodd" clip-rule="evenodd" d="M37.8223 12.6888C36.72 11.784 34.6076 10.0501 34.0755 9.82263C34.2781 10.5999 33.7343 10.7117 33.4252 10.7752C33.3475 10.7911 33.2847 10.804 33.2522 10.8237C34.3936 12.0445 35.8551 13.2028 37.2719 14.3258C37.8721 14.8015 38.4642 15.2709 39.0207 15.7359C39.1587 15.8513 39.3182 15.9774 39.4851 16.1094C39.9139 16.4485 40.3916 16.8262 40.6811 17.1604C39.7821 17.2342 38.8286 17.2209 37.8947 17.2079C37.5375 17.203 37.1831 17.198 36.8357 17.198L29.8375 17.1969L29.7928 17.2458C29.9409 17.2667 30.0997 17.2626 30.2545 17.2585C30.3103 17.2571 30.3655 17.2557 30.4195 17.2554L30.3959 17.2683L30.4721 17.2688L30.4451 17.2698C29.7356 17.3008 28.9833 18.6995 28.3012 19.9678C28.1492 20.2503 28.0007 20.5264 27.8569 20.7795C29.0101 20.4499 30.2279 20.2734 31.4869 20.2734C38.768 20.2734 44.6705 26.1759 44.6705 33.457C44.6705 40.7381 38.768 46.6406 31.4869 46.6406C24.2058 46.6406 18.3033 40.7381 18.3033 33.457C18.3033 33.2556 18.3078 33.0553 18.3168 32.8561C18.1063 32.8382 17.8267 32.9603 17.6192 33.0509C17.5437 33.0839 17.4777 33.1127 17.4281 33.1291C17.2512 33.1874 17.0674 33.2293 16.8834 33.2713C16.6029 33.3353 16.3218 33.3995 16.0634 33.522C15.8823 33.6079 15.6848 33.7363 15.4866 33.8652C15.2294 34.0324 14.9711 34.2005 14.7455 34.2774C14.0842 34.503 11.9578 35.2669 11.547 35.5975C11.4774 35.6536 11.418 35.7414 11.3632 35.8224C11.237 36.0091 11.1354 36.1593 10.9897 35.8003C10.9758 35.9837 10.9815 36.1695 10.9871 36.3552C10.9938 36.5742 11.0004 36.793 10.9751 37.0075C10.9512 37.8665 10.9597 38.7312 10.9682 39.5944C10.9725 40.0359 10.9768 40.4769 10.9768 40.9166C10.9768 41.126 10.9755 41.3352 10.9743 41.5438C10.9568 44.3737 10.9401 47.0848 14.1423 48.4958C15.4659 49.079 18.1109 49.0166 20.0331 48.9713C20.4884 48.9606 20.9031 48.9508 21.2502 48.9508L43.2135 48.9527C43.3741 48.9526 43.5354 48.9539 43.6972 48.9551C44.8301 48.9638 45.9846 48.9726 47.0523 48.5505C50.5144 47.1816 50.4757 44.2646 50.4363 41.2943C50.4321 40.9791 50.4279 40.6633 50.4279 40.3487L50.4295 26.4556C50.4295 26.0993 50.4324 25.742 50.4353 25.3842C50.4443 24.2798 50.4533 23.1709 50.3792 22.0734C50.2047 19.4858 48.0068 17.2746 45.3737 17.2253C44.3964 17.207 44.0993 17.2992 43.8336 17.2429C43.5886 17.191 43.3703 17.0128 42.6692 16.5049C41.3223 15.5292 40.1119 14.5481 38.84 13.5171C38.6682 13.3779 38.4953 13.2377 38.3208 13.0966C38.2021 13.0006 38.0302 12.8594 37.8223 12.6888Z" fill="url(#paint0_linear_333_5953)"/>
<path fill-rule="evenodd" clip-rule="evenodd" d="M10.9647 35.9756C10.9528 36.3384 10.9397 36.7391 10.9751 37.0075C11.0005 36.793 10.9938 36.5742 10.9872 36.3552C10.9815 36.1696 10.9759 35.9837 10.9897 35.8003C11.1354 36.1593 11.237 36.0091 11.3632 35.8224C11.418 35.7414 11.4774 35.6536 11.5471 35.5975C11.9579 35.267 14.0842 34.503 14.7455 34.2774C14.9711 34.2005 15.2295 34.0325 15.4866 33.8652C15.6848 33.7363 15.8823 33.6079 16.0635 33.522C16.3218 33.3995 16.6029 33.3353 16.8834 33.2713C17.0675 33.2293 17.2512 33.1874 17.4281 33.1291C17.4777 33.1127 17.5437 33.0839 17.6192 33.0509C17.8267 32.9603 18.1064 32.8382 18.3168 32.8562C18.575 27.0992 22.5255 22.3032 27.8569 20.7795C28.0007 20.5264 28.1492 20.2503 28.3012 19.9678C28.9833 18.6995 29.7356 17.3008 30.4451 17.2698L30.4721 17.2688L30.396 17.2683L30.4195 17.2554C30.3655 17.2557 30.3103 17.2571 30.2546 17.2586C30.0998 17.2626 29.9409 17.2667 29.7929 17.2458L29.8375 17.1969L20.7587 17.1672C21.5593 16.2645 23.4611 14.7888 24.7973 13.7518C25.0779 13.5341 25.3335 13.3357 25.5488 13.1661C25.6321 13.1004 25.7387 13.0211 25.8602 12.9308C26.5847 12.3922 27.8351 11.4625 27.7757 10.7185C27.6553 9.20867 25.052 11.5407 24.254 12.2556C24.1495 12.3492 24.076 12.4151 24.043 12.441L18.9213 16.4519C18.8229 16.5292 18.7358 16.5991 18.6571 16.6624C18.0551 17.1459 17.9402 17.2382 16.9702 17.2332C15.0929 17.2237 13.8133 17.502 12.4593 18.8907C10.8856 20.5049 10.9236 22.4248 10.9637 24.456C10.97 24.7742 10.9763 25.0952 10.9765 25.4181L10.9755 35.5198C10.9753 35.6532 10.9701 35.8105 10.9647 35.9756Z" fill="#FFDDD2"/>
<path d="M31.5189 42.7267C31.2772 42.6703 30.7951 42.6735 30.7079 42.42C30.7039 42.1966 30.6039 42.0335 30.4341 41.8943C30.2806 41.7685 30.2855 41.7517 30.4031 41.581C30.571 41.3374 30.6682 41.075 30.6746 40.7735C30.7279 38.7426 30.9351 36.7248 30.932 34.6917C30.0688 34.8779 30.1253 34.0811 29.9751 33.4794C29.8993 33.8075 29.8346 34.1153 29.7553 34.4194C29.7043 34.7173 29.4415 34.6255 29.2172 34.6441C28.9399 34.6714 28.6861 34.6363 28.5015 34.3973C28.4161 34.3143 28.317 34.3032 28.2359 34.3909C28.08 34.5557 27.9328 34.7291 27.7823 34.8991C27.8071 34.653 27.9393 34.4724 28.1111 34.3185C28.5221 33.9466 28.4934 34.5664 29.1057 34.4809C29.4037 34.458 29.6219 34.5778 29.66 34.191C29.7709 33.5626 29.8954 32.9334 29.9 32.2934C30.1102 32.9478 30.1493 33.6643 30.3902 34.3161C30.4518 34.4883 30.6336 34.54 30.8378 34.4811C31.0036 34.4332 30.9574 34.2912 30.9643 34.1744C30.9011 33.494 30.7574 32.8262 30.5614 32.1716C30.5344 32.0828 30.5177 31.978 30.5375 31.8899C30.7305 31.0623 30.775 30.2208 30.8087 29.376C30.8491 29.5691 30.8621 29.761 30.8839 29.9519C30.9102 30.119 31.1152 30.0753 31.2389 30.111C31.1606 29.637 31.2516 29.0424 30.7236 28.8186C30.7002 28.8648 30.6872 28.9146 30.6561 28.9468C30.5183 29.0906 30.716 29.113 30.733 29.2298C30.6913 30.2218 30.3484 31.1227 29.9078 32.0064C29.5537 31.1463 29.1461 30.3287 28.7656 29.4825C28.6755 29.2869 28.6737 29.2867 28.8251 29.1419C28.8562 29.1121 28.8947 29.09 28.9484 29.0508C28.7425 28.8892 28.6604 28.7824 28.5797 28.5376C28.0013 28.7792 27.2062 28.8631 27.1835 29.6505C27.1318 30.3531 27.0599 31.0544 27.0137 31.7574C26.9841 32.2066 26.9353 32.6663 27.0679 33.1028C27.2719 33.702 27.4504 34.3284 27.7213 34.8981C27.8559 35.0441 27.9094 35.2182 27.9165 35.4132C27.9395 36.5632 28.1193 37.7145 27.8841 38.8559C27.862 38.9665 27.8195 39.0052 27.7188 39.0289C25.8096 39.3505 24.8259 41.7712 26.5059 43.2448C26.0795 41.7392 26.5162 40.5871 27.7914 39.6975C27.7928 40.4356 27.7593 41.1647 27.7294 41.9011C27.7167 42.1485 27.7503 42.3783 27.8365 42.6156C28.1383 42.4858 28.4495 42.5121 28.794 42.5882C29.252 40.9509 29.0279 39.2293 29.2885 37.5647C29.5991 36.3028 30.0885 35.8835 29.9253 34.4427C30.2957 35.4828 29.8979 36.2127 29.5651 37.1807C29.421 37.5358 29.5913 37.9027 29.5331 38.2681C29.3674 38.8668 29.4254 39.4791 29.4321 40.0925C29.4382 40.6565 29.4566 41.2209 29.4438 41.7845C29.4378 42.0466 29.4404 42.2977 29.5434 42.5425C29.5659 42.5959 29.5641 42.6616 29.5651 42.7217C29.5684 42.9262 29.8287 43.1295 30.025 43.0965C30.1424 43.0768 30.2805 43.0587 30.384 43.1013C30.8053 43.2682 31.2327 43.2023 31.6705 43.2152C31.7986 43.2302 31.7986 42.792 31.5189 42.7267ZM28.4534 33.2414C28.7189 33.2414 28.9699 33.2414 29.2201 33.2414C29.2777 33.4982 29.2296 33.5626 28.9739 33.5652C28.8392 33.5666 28.7043 33.5595 28.5696 33.5554C28.3673 33.5543 28.4592 33.385 28.4534 33.2414ZM28.067 32.3959C28.0873 31.7308 28.1703 31.0828 28.0327 30.4354C28.0479 30.4345 28.4789 32.382 28.2749 33.3673C28.2487 33.5041 28.2711 33.6501 28.2711 33.7919C28.038 33.5227 28.0259 33.1747 28.0565 32.8441C28.1051 32.5532 27.925 32.4089 27.828 32.161C27.8448 32.1515 27.9991 32.3012 28.067 32.3959Z" fill="url(#paint1_linear_333_5953)"/>
<path d="M25.3372 25.2782C21.4394 28.1717 20.5387 32.6898 21.4038 36.2544C20.165 29.3492 26.0723 22.5272 33.2009 23.8311C39.0705 24.77 42.5353 30.6172 41.6821 36.2967C44.1454 27.468 33.5991 19.1911 25.3372 25.2782Z" fill="url(#paint2_linear_333_5953)"/>
<path d="M30.8937 30.2382C30.8717 30.7755 30.8495 31.3064 30.7078 31.8293C30.6827 31.926 30.6878 32.0386 30.7083 32.1378C30.8676 32.8722 31.0096 33.6117 31.1982 34.3392C31.2168 34.4037 31.243 34.4668 31.3451 34.4482C31.555 34.4099 31.7673 34.3819 31.9798 34.3607C32.1464 34.3571 32.1444 34.1684 32.2213 34.0579C32.3237 34.7566 32.4103 35.4416 32.5272 36.1214C32.8958 38.1763 31.4006 39.9142 30.523 41.643C30.4452 41.7768 30.4448 41.7997 30.5863 41.8705C32.5885 42.5856 35.0109 42.4512 37.0371 41.8689C36.3022 40.4341 35.581 39.026 34.8597 37.6179C35.3834 38.9927 36.0752 40.2938 36.6776 41.6733C36.2673 41.751 35.8821 41.825 35.4964 41.8963C35.3945 41.9151 35.3745 41.8341 35.351 41.7629C35.1226 41.0719 34.895 40.3807 34.6672 39.6895C34.764 40.3897 34.9744 41.0922 35.1094 41.793C35.139 41.9279 35.1195 41.9605 34.9829 41.9731C34.739 41.9957 34.4942 42.0085 34.2504 42.0327C34.1213 42.0455 34.0657 41.9836 34.0457 41.8683C33.8612 40.8091 33.6872 39.7479 33.5073 38.6878C33.5788 39.7482 33.7116 40.8028 33.8055 41.8613C33.8202 42.0149 33.7985 42.0384 33.6372 42.0293C33.2093 42.005 32.7816 41.976 32.3541 41.9446C32.2104 41.934 32.195 41.9008 32.2214 41.7591C32.4422 40.4848 32.7558 39.2228 32.8291 37.9282C32.5018 39.1651 32.3429 40.4489 31.8534 41.6401C31.7952 41.8021 31.7505 41.8242 31.5847 41.7911C31.4523 41.7646 31.3208 41.7284 31.1935 41.6833C30.9897 41.6111 30.9891 41.5982 31.097 41.4107C31.8796 39.9739 32.7113 38.4056 32.6517 36.725C32.5347 35.4281 32.2401 34.1238 32.4848 32.8247C32.3999 32.8905 32.3207 33.0012 32.2287 33.0133C32.0153 33.0413 31.9301 33.1618 31.8902 33.347C31.8894 33.3506 31.8774 33.3518 31.8685 33.3549C31.6359 32.2796 31.3145 31.2203 31.2396 30.1178C31.1878 30.3185 31.0263 30.2356 30.8937 30.2382Z" fill="url(#paint3_linear_333_5953)"/>
<path d="M31.2396 30.1177C31.2401 30.1158 31.2406 30.114 31.2411 30.112C31.2412 30.1119 31.2414 30.1116 31.2414 30.1116C31.2406 30.1114 31.2396 30.1112 31.2388 30.111C31.2389 30.112 31.2391 30.1131 31.2393 30.1142C31.2393 30.1154 31.2395 30.1165 31.2396 30.1177Z" fill="url(#paint4_linear_333_5953)"/>
<path d="M32.2898 27.6084C32.279 27.6544 32.2965 27.7023 32.3323 27.7333C32.4478 27.833 32.4279 27.9968 32.487 28.121C32.5732 28.3022 32.5635 28.3264 32.7719 28.3199C32.8749 28.3296 33.0347 28.2525 33.052 28.4064C33.1491 28.8433 32.8581 29.2051 32.4613 29.3472C32.4285 29.368 32.3923 29.4149 32.3919 29.4504C32.3897 29.6278 32.3482 29.8267 32.5877 29.9029C32.731 30.0209 32.8298 30.2 32.954 30.3397C33.1503 30.0877 33.3776 29.8686 33.6984 29.7701C33.7199 29.7635 33.7423 29.7405 33.7525 29.7194C33.8783 29.4589 34.0744 29.2724 34.3599 29.1575C33.9781 28.9514 33.7568 28.6653 33.7807 28.228C34.173 28.2028 34.4566 28.036 34.6022 27.6955C33.3848 27.6399 33.7645 26.6784 32.9933 26.406C32.6652 26.2794 32.2243 26.6062 32.3957 26.9582C32.4611 27.0947 32.4504 27.2188 32.3968 27.349C32.3756 27.4199 32.3102 27.521 32.2898 27.6084ZM33.8189 27.8321C33.8233 28.0733 33.4588 28.2415 33.3167 27.9819C33.5451 28.1206 33.6893 28.006 33.8189 27.8321Z" fill="url(#paint5_linear_333_5953)"/>
<path d="M30.8557 25.8582C30.863 25.7585 30.7852 25.7299 30.7055 25.7063C30.4882 25.6417 30.2717 25.5745 30.0548 25.5087C29.742 25.41 29.3759 25.3487 29.1093 25.5921C29.0179 25.677 28.9639 25.7977 28.8292 25.8404C28.5185 26.1444 28.7462 26.7929 28.8984 27.1383C29.0237 27.4214 29.2154 27.6875 29.1525 28.0268C29.1486 28.0477 29.189 28.0925 29.2167 28.1012C29.4612 28.1787 29.6951 28.2713 29.8577 28.485C29.8607 28.4888 29.8732 28.4855 29.8975 28.4855C29.9299 28.3819 29.9758 28.2765 29.9947 28.1665C30.0365 27.9228 30.0309 27.9219 30.2704 27.9668C30.4663 28.0035 30.491 27.9793 30.5561 27.7816C30.6183 27.5929 30.5872 27.3776 30.8477 27.3791C30.8494 27.3791 31.0063 27.3893 30.9257 27.2458C30.8113 27.0419 30.6633 26.8539 30.8017 26.6145C30.8181 26.5864 30.8077 26.537 30.7983 26.5004C30.7742 26.4074 30.7395 26.3171 30.7168 26.2238C30.696 26.1381 30.6496 26.1063 30.5608 26.0996C30.3354 26.0826 30.1109 26.0538 29.886 26.0297C29.8872 26.0176 30.414 25.9953 30.6762 25.9923C30.7644 25.9912 30.848 25.9637 30.8557 25.8582ZM29.288 26.7896C29.3061 26.7081 29.3528 26.6622 29.4521 26.6802C29.2849 26.8028 29.2926 26.8668 29.5062 27.0788C29.3309 27.0132 29.2608 26.9127 29.288 26.7896Z" fill="url(#paint6_linear_333_5953)"/>
<path d="M38.5533 32.3849C37.9251 33.4815 37.7629 33.4896 38.0949 34.7848C38.2552 35.2642 37.6655 35.3823 38.0151 35.9892C38.2667 35.8099 38.2652 35.8214 38.4929 36.0277C38.5972 35.6457 38.508 35.3311 38.2607 35.0523C38.1414 34.9114 38.3046 34.7899 38.377 34.6302C38.4794 34.8147 38.5649 34.9688 38.6531 35.1275C38.7136 35.0943 38.777 35.0596 38.8498 35.0197C39.0228 35.5356 38.5339 35.3679 38.6262 36.367C38.7439 36.34 38.8434 36.3171 38.9508 36.2924C38.9575 36.3509 38.9628 36.3971 38.9722 36.4779C39.461 36.0174 39.1761 35.7078 39.4177 35.6585C39.4438 35.6529 39.4792 35.6044 39.479 35.5757C39.5408 34.2171 39.3895 33.563 38.7181 32.381C38.6648 32.2766 38.5994 32.3055 38.5533 32.3849Z" fill="url(#paint7_linear_333_5953)"/>
<path d="M31.9206 32.825C31.9658 33.0008 32.0579 33.0357 32.2083 32.9311C32.3832 32.803 32.396 32.6888 32.6511 32.6967C33.4369 32.6835 34.2288 32.7344 35.0085 32.6163C35.1434 32.5971 35.2613 32.52 35.2524 32.3692C35.2345 32.0666 35.1949 31.7652 35.1629 31.45C34.9015 31.4861 34.6715 31.5179 34.4181 31.5529C34.5339 31.7129 34.4181 31.9337 34.6246 32.0391C33.9853 32.1378 33.3532 32.2354 32.7006 32.3361C32.6996 31.9729 32.6733 31.6507 32.6473 31.294C32.62 30.9876 32.4796 30.8232 32.1964 30.7549C32.1913 31.2319 32.1664 31.706 32.1484 32.1824C32.1458 32.2386 32.1306 32.314 32.0924 32.3454C31.9494 32.4628 31.875 32.6476 31.9206 32.825Z" fill="url(#paint8_linear_333_5953)"/>
<path d="M37.3844 39.5134C37.9237 40.0629 38.1493 40.7872 37.9806 41.563C38.6231 41.0088 38.5318 40.1003 38.2476 39.3936C37.8697 38.2417 36.5492 38.0033 35.4834 37.9294C36.1335 38.4333 36.8008 38.9358 37.3844 39.5134Z" fill="url(#paint9_linear_333_5953)"/>
<path d="M26.5477 38.9686C26.9735 38.6398 27.4068 38.3209 27.8618 37.9789C26.8316 37.9916 25.6911 38.2563 25.2302 39.2893C24.8607 40.0691 24.7921 41.163 25.4791 41.787C25.1539 40.7385 25.7197 39.6159 26.5477 38.9686Z" fill="url(#paint10_linear_333_5953)"/>
<path d="M30.0176 31.4265C30.2806 30.783 30.4459 30.112 30.5257 29.421C30.5414 29.2808 30.5501 29.1632 30.4097 29.0859C30.4043 29.0829 30.4042 29.0701 30.3996 29.0553C30.4462 28.9985 30.5263 28.9044 30.4978 28.8278C30.4242 28.7038 30.3394 28.5865 30.2587 28.4668C30.3233 28.9416 30.3376 29.8889 30.2664 30.113C30.1518 29.7266 29.9273 28.9625 29.9094 28.9643C29.868 29.3481 29.8004 29.732 29.759 30.1159C29.7523 30.1155 29.2524 28.8448 29.0065 28.2026C28.9309 28.2717 28.763 28.3601 28.7642 28.4262C28.7959 28.8276 28.8842 28.7665 29.1476 29.032C29.0748 29.1104 29.0193 29.1854 28.949 29.2418C28.868 29.3067 28.8662 29.3641 28.9113 29.4527C29.1969 29.9876 29.437 30.5511 29.741 31.0739C29.7493 31.07 29.5466 29.9866 29.5575 29.9834C29.71 30.4618 29.8625 30.9401 30.0176 31.4265Z" fill="url(#paint11_linear_333_5953)"/>
<path d="M36.3335 39.186C36.7248 40.4171 37.6095 41.7084 36.9755 43.0081C37.7834 42.5872 37.8525 41.6017 37.652 40.818C37.4505 40.0898 36.9223 39.6134 36.3335 39.186Z" fill="url(#paint12_linear_333_5953)"/>
<path d="M34.2623 30.8507C34.3148 31.0555 34.3558 31.2153 34.3985 31.382C34.6408 31.339 34.8754 31.2974 35.1203 31.2539C35.0232 30.6544 35.0071 30.0469 34.8217 29.4705C34.627 28.9923 34.0028 29.4524 33.9195 29.7677C34.6077 30.3876 34.0578 30.8936 33.8115 31.5722C33.8221 31.5768 34.1112 31.1159 34.2623 30.8507Z" fill="url(#paint13_linear_333_5953)"/>
<path d="M33.9845 25.9507C33.6012 25.963 33.2562 26.1087 32.9224 26.2892C33.4094 26.3468 33.577 26.8147 33.8117 27.1689C33.9931 27.4671 34.5208 27.7155 34.7079 27.2938C35.0607 26.6936 34.7122 25.9045 33.9845 25.9507ZM34.2645 27.0883C34.1081 27.178 34.0651 27.2148 33.9652 27.0506C33.7751 26.9046 33.7214 26.9416 33.8486 26.7176C33.9175 26.5069 33.9169 26.5105 34.1473 26.5639C34.1771 26.5183 34.2526 26.5007 34.3314 26.5583C34.4269 26.628 34.3678 26.7044 34.3208 26.7891C34.5561 26.8557 34.4675 27.0915 34.2645 27.0883Z" fill="url(#paint14_linear_333_5953)"/>
<path d="M31.526 35.6573C31.6759 35.5946 31.8417 35.5383 31.9348 35.3796C32.0994 35.099 32.0746 34.7937 32.0689 34.4534C31.8526 34.4829 31.6467 34.5053 31.4437 34.5431C31.3973 34.5517 31.3397 34.6059 31.3235 34.6519C31.2497 34.8604 31.1785 35.071 31.1274 35.2858C31.0979 35.4098 31.4102 35.7057 31.526 35.6573Z" fill="url(#paint15_linear_333_5953)"/>
<path d="M36.0044 36.1911C36.2159 36.343 36.4356 36.4989 36.6532 36.6578C36.9967 36.9117 37.238 37.1727 37.6993 37.1686C37.5407 36.565 36.6138 35.8273 36.0044 36.1911Z" fill="url(#paint16_linear_333_5953)"/>
<path d="M27.334 36.1807C26.66 35.8714 25.9662 36.4739 25.6948 37.0682C26.1382 37.1891 26.4346 36.915 26.7261 36.645C26.9261 36.4914 27.1268 36.3387 27.334 36.1807Z" fill="url(#paint17_linear_333_5953)"/>
<path d="M28.6329 42.6631C28.4587 42.6536 28.2827 42.6336 28.11 42.6483C27.7763 42.6768 27.7597 42.7006 27.6757 43.0228C27.6432 43.1477 27.6841 43.2084 27.8129 43.2119C27.966 43.2161 28.1193 43.2129 28.2725 43.2129C28.2725 43.213 28.2725 43.2132 28.2725 43.2134C28.3688 43.2134 28.4652 43.2098 28.5614 43.214C28.9381 43.2305 28.9242 43.1666 28.8304 42.8383C28.7994 42.7301 28.7415 42.669 28.6329 42.6631Z" fill="url(#paint18_linear_333_5953)"/>
<path d="M33.5365 42.5511C33.5393 42.4712 33.5093 42.4332 33.4216 42.4339C33.2514 42.4351 33.0811 42.423 32.9108 42.4226C32.879 42.4225 32.8261 42.4443 32.8186 42.4676C32.7283 42.745 32.5338 42.9204 32.2803 43.045C32.2472 43.0612 32.2282 43.106 32.2026 43.1375C32.3873 43.276 32.8114 43.1867 33.021 43.1131C33.1895 43.0499 33.2266 42.8871 33.3113 42.7581C33.3649 42.6763 33.4392 42.6081 33.5042 42.5339C33.515 42.5396 33.5257 42.5454 33.5365 42.5511Z" fill="url(#paint19_linear_333_5953)"/>
<path d="M34.0579 42.4331C33.9884 42.4333 33.9494 42.4539 33.9268 42.5275C33.8479 42.8311 33.6026 42.9472 33.3687 43.1167C33.3707 43.1332 33.3728 43.1497 33.3748 43.1662C33.8495 43.3082 34.2868 43.108 34.5803 42.7346C34.6515 42.6484 34.5966 42.5739 34.5618 42.5054C34.4727 42.3625 34.2049 42.4481 34.0579 42.4331Z" fill="url(#paint20_linear_333_5953)"/>
<path d="M36.9734 35.1521C36.952 35.7299 37.0851 36.0387 37.4273 36.2095C37.4157 36.1328 37.4045 36.0581 37.39 35.9623C37.5194 36.0094 37.6241 36.0474 37.7315 36.0865C37.7946 35.5121 37.5601 35.2281 36.9734 35.1521Z" fill="url(#paint21_linear_333_5953)"/>
<path d="M26.0064 36.1866C26.2981 35.9706 26.4129 35.5744 26.3092 35.1747C25.7655 35.2702 25.5437 35.5599 25.6186 36.0923C25.7493 36.0448 25.8679 36.0017 26.0064 35.9513C26.0064 36.0469 26.0064 36.1127 26.0064 36.1866Z" fill="url(#paint22_linear_333_5953)"/>
<path d="M25.1114 35.0441C24.8861 35.3513 24.7569 35.6762 24.9096 36.0762C24.9964 35.9968 25.0689 35.9305 25.1556 35.8513C25.2413 35.9771 25.3184 36.09 25.3996 36.2092C25.6008 35.7539 25.4858 35.3019 25.1114 35.0441Z" fill="url(#paint23_linear_333_5953)"/>
<path d="M38.5938 37.2305C38.9928 37.2216 39.2539 37.0071 39.3853 36.5879C38.9586 36.5 38.67 36.7311 38.5938 37.2305Z" fill="url(#paint24_linear_333_5953)"/>
<path d="M34.4238 32.7684C34.4113 32.7753 34.3988 32.7822 34.3862 32.789C34.9289 34.2196 34.7097 35.7689 34.7875 37.265C34.7717 35.766 34.9668 34.1987 34.4238 32.7684Z" fill="url(#paint25_linear_333_5953)"/>
<path d="M32.2608 29.4224C31.9637 29.6261 32.0595 29.894 32.098 30.1481C32.2322 29.7489 32.3198 29.9259 32.2608 29.4224Z" fill="url(#paint26_linear_333_5953)"/>
<path d="M29.8962 28.8686C29.9389 28.7377 29.972 28.6362 30.0149 28.5046C30.0716 28.605 30.157 28.7228 30.1648 28.7199C30.1449 28.6186 30.1251 28.5173 30.0973 28.3759C29.9445 28.5791 29.8068 28.5847 29.6714 28.3905C29.6714 28.5428 29.6714 28.6631 29.6714 28.7834C29.6798 28.7842 29.7665 28.5677 29.7775 28.5638C29.8142 28.658 29.8509 28.7523 29.8962 28.8686Z" fill="url(#paint27_linear_333_5953)"/>
<path d="M42.667 28.9929C42.059 27.5556 41.1888 26.2647 40.0804 25.1564C38.9721 24.0481 37.6813 23.1778 36.2439 22.5699C34.7555 21.9403 33.1747 21.6211 31.5454 21.6211C29.9162 21.6211 28.3354 21.9403 26.8469 22.5699C25.4095 23.1778 24.1188 24.0481 23.0104 25.1564C21.9021 26.2647 21.0318 27.5555 20.4239 28.9929C19.7943 30.4814 19.4751 32.0622 19.4751 33.6914C19.4751 35.3207 19.7943 36.9015 20.4239 38.3899C21.0318 39.8273 21.9021 41.1181 23.0104 42.2264C24.1188 43.3347 25.4095 44.205 26.8469 44.8129C28.3354 45.4425 29.9162 45.7617 31.5454 45.7617C33.1747 45.7617 34.7555 45.4425 36.2439 44.8129C37.6813 44.205 38.9721 43.3347 40.0804 42.2264C41.1888 41.1181 42.059 39.8273 42.667 38.3899C43.2965 36.9015 43.6157 35.3207 43.6157 33.6914C43.6157 32.0622 43.2965 30.4814 42.667 28.9929ZM41.8672 37.0168C41.2828 36.6358 40.5591 36.5018 39.9005 36.7765C40.4045 36.1591 41.0064 35.6004 41.2109 34.8006C41.2822 34.5918 41.2829 34.3818 41.2222 34.1681C41.1327 33.8533 41.0517 33.5361 40.9638 33.2077C40.657 33.4346 40.412 33.7472 40.1332 34.0112C39.6118 34.5445 39.6972 35.2936 39.6366 35.9867C39.5814 36.0051 39.4995 36.0324 39.3843 36.0708C39.5672 36.2218 39.7321 36.3579 39.8937 36.4914C39.4493 37.1416 39.3533 37.032 38.7657 37.4134C38.6724 37.1461 37.9655 37.4015 37.8128 37.5468C37.5564 37.233 37.3107 37.0483 36.8974 37.2095C37.053 37.4618 37.437 37.6658 37.7793 37.6909C37.8051 37.7455 37.8202 37.8157 37.8626 37.8592C37.9585 37.9578 38.0547 38.0876 38.1751 38.1235C38.3471 38.1749 38.3898 38.2781 38.4282 38.4245C38.6505 39.2417 38.6146 40.0693 38.4991 40.8982C38.5122 40.9027 38.5254 40.9072 38.5386 40.9117C38.7295 40.5369 38.7547 40.1172 38.7798 39.7054C38.7852 39.5754 38.829 39.5275 38.9421 39.4871C40.3496 38.9907 40.486 38.7322 41.1124 37.4372C41.257 37.1041 41.9131 37.0174 41.7725 37.3328C41.5562 37.8153 41.3487 38.3017 41.1411 38.788C41.0955 38.8947 41.0255 38.9398 40.9086 38.9635C39.7082 39.18 38.9445 40.0842 38.511 41.1722C38.333 41.581 38.1024 41.9551 37.8043 42.2873C37.7906 42.3026 37.7796 42.3205 37.7813 42.3587C38.8283 41.8162 39.3198 40.653 40.3147 40.0368C36.2318 46.1249 26.8923 46.1236 22.6848 39.9934C22.6962 39.9762 23.268 40.3575 23.5118 40.5967C24.2303 41.3329 24.862 42.1794 25.7848 42.679C24.4901 41.3216 24.3607 39.3235 22.1579 38.9263C22.0474 38.9035 21.9801 38.8556 21.9368 38.754C21.7286 38.2372 21.475 37.7402 21.2912 37.2145C21.8274 36.8824 22.2371 37.4602 22.4059 37.9048C22.5259 38.1935 22.6669 38.4673 22.8883 38.6951C23.3188 39.151 23.925 39.3346 24.4945 39.5498C24.5737 39.5783 24.6008 39.6166 24.6038 39.6993C24.6196 40.1335 24.6662 40.5633 24.8219 40.9738C24.8613 41.0452 24.8669 41.137 24.9489 41.1762C24.7399 40.2025 24.7409 39.2069 24.9752 38.2386C24.9841 38.2008 25.007 38.1508 25.0377 38.136C25.425 37.949 25.4507 37.9277 25.6126 37.6105C25.9488 37.7751 26.1627 37.6845 26.4177 37.2694C26.1657 37.0369 25.8457 37.1099 25.536 37.4743C25.1681 37.0352 24.7679 37.2897 24.7077 37.0072C24.5402 36.6313 24.321 36.5345 23.9076 36.6597C24.1105 36.9055 24.2753 37.1912 24.6391 37.2262C24.5977 37.3167 24.5583 37.4029 24.5212 37.4839C24.1411 37.2209 23.756 36.9546 23.3596 36.6804C24.1301 36.0709 24.0189 36.3949 23.8483 35.7031C24.272 35.7496 23.8551 36.0292 24.3886 36.5455C24.3754 36.4755 24.3668 36.4296 24.3539 36.3612C24.487 36.3848 24.6081 36.4063 24.7407 36.4298C24.8116 35.4276 24.287 35.5495 24.4603 35.0696C24.561 35.1193 24.6535 35.1649 24.7539 35.2144C24.8126 35.061 24.8697 34.9117 24.9312 34.751C24.9783 34.783 25.016 34.8086 25.0847 34.8553C25.3934 33.6728 25.2579 33.3692 24.5737 32.3898C24.5008 32.2835 24.4527 32.2857 24.3942 32.3979C23.6301 33.8201 23.6541 34.3777 23.6813 35.9407C23.6376 35.9407 23.5826 35.9407 23.5189 35.9407C23.5018 35.3283 23.5263 34.5844 23.0894 34.1032C22.7889 33.8017 22.5265 33.4767 22.1923 33.2099C22.0942 33.5879 21.9868 33.9444 21.9144 34.3078C21.8433 35.2354 22.5656 35.9341 23.1271 36.5858C22.415 36.3102 21.8102 36.605 21.2125 36.9323C20.0625 33.4014 20.7193 28.3554 24.9003 25.095C33.7638 18.3198 45.1743 27.6855 41.8672 37.0168ZM39.5733 37.3247C39.5841 37.2947 39.6122 37.2642 39.6404 37.2483C40.1085 36.9716 40.6261 36.7319 41.186 36.826C40.1145 36.8357 39.6704 37.9217 39.1368 38.668C39.1251 38.6634 39.1134 38.6589 39.1017 38.6543C39.2584 38.2109 39.4144 37.7673 39.5733 37.3247ZM38.7758 39.1872C38.704 38.8521 38.6364 38.5464 38.5756 38.2393C38.5694 38.208 38.5987 38.1647 38.6208 38.1335C38.6858 38.0418 38.7814 37.9627 38.8173 37.8617C38.8714 37.7099 38.9596 37.609 39.0997 37.5415C39.1499 37.5172 39.1952 37.4828 39.2731 37.4341C39.104 38.0305 38.9434 38.5966 38.7758 39.1872ZM24.2388 38.7505C23.9284 38.271 23.6149 37.8262 23.2479 37.397C22.8207 36.9052 22.2594 36.8232 21.6349 36.8876C22.3784 36.6039 23.0901 36.8434 23.7078 37.2583C23.7378 37.2768 23.7634 37.3143 23.7754 37.3484C23.9213 37.8183 24.1348 38.2734 24.2388 38.7505ZM24.0611 37.4641C24.6936 37.7753 24.3385 37.5631 24.6995 38.0057C24.7667 38.0633 24.7842 38.1116 24.7706 38.1934C24.7164 38.5194 24.6679 38.8463 24.6173 39.1729C24.6077 39.1757 24.5982 39.1786 24.5887 39.1815C24.4162 38.6199 24.2436 38.0583 24.0611 37.4641Z" fill="url(#paint28_linear_333_5953)"/>
<defs>
<linearGradient id="paint0_linear_333_5953" x1="45.5714" y1="50.1527" x2="20.6785" y2="21.5975" gradientUnits="userSpaceOnUse">
<stop stop-color="#E378B7"/>
<stop offset="1" stop-color="#FFDDD2"/>
</linearGradient>
<linearGradient id="paint1_linear_333_5953" x1="25.3627" y1="27.7497" x2="32.8184" y2="28.0068" gradientUnits="userSpaceOnUse">
<stop stop-color="#E378B7"/>
<stop offset="1" stop-color="#FFDDD2"/>
</linearGradient>
<linearGradient id="paint2_linear_333_5953" x1="20.1304" y1="22.4843" x2="45.2873" y2="25.8216" gradientUnits="userSpaceOnUse">
<stop stop-color="#E378B7"/>
<stop offset="1" stop-color="#FFDDD2"/>
</linearGradient>
<linearGradient id="paint3_linear_333_5953" x1="30.1661" y1="29.4621" x2="38.1762" y2="29.8189" gradientUnits="userSpaceOnUse">
<stop stop-color="#E378B7"/>
<stop offset="1" stop-color="#FFDDD2"/>
</linearGradient>
<linearGradient id="paint4_linear_333_5953" x1="31.2386" y1="30.1106" x2="31.2419" y2="30.1107" gradientUnits="userSpaceOnUse">
<stop stop-color="#E378B7"/>
<stop offset="1" stop-color="#FFDDD2"/>
</linearGradient>
<linearGradient id="paint5_linear_333_5953" x1="32.1792" y1="26.1659" x2="35.0028" y2="26.303" gradientUnits="userSpaceOnUse">
<stop stop-color="#E378B7"/>
<stop offset="1" stop-color="#FFDDD2"/>
</linearGradient>
<linearGradient id="paint6_linear_333_5953" x1="28.5688" y1="25.2578" x2="31.3382" y2="25.4285" gradientUnits="userSpaceOnUse">
<stop stop-color="#E378B7"/>
<stop offset="1" stop-color="#FFDDD2"/>
</linearGradient>
<linearGradient id="paint7_linear_333_5953" x1="37.8286" y1="32.0904" x2="39.7692" y2="32.1519" gradientUnits="userSpaceOnUse">
<stop stop-color="#E378B7"/>
<stop offset="1" stop-color="#FFDDD2"/>
</linearGradient>
<linearGradient id="paint8_linear_333_5953" x1="31.752" y1="30.6352" x2="35.7791" y2="31.1357" gradientUnits="userSpaceOnUse">
<stop stop-color="#E378B7"/>
<stop offset="1" stop-color="#FFDDD2"/>
</linearGradient>
<linearGradient id="paint9_linear_333_5953" x1="35.3451" y1="37.7348" x2="38.9724" y2="37.9819" gradientUnits="userSpaceOnUse">
<stop stop-color="#E378B7"/>
<stop offset="1" stop-color="#FFDDD2"/>
</linearGradient>
<linearGradient id="paint10_linear_333_5953" x1="24.8207" y1="37.7749" x2="28.3587" y2="37.9991" gradientUnits="userSpaceOnUse">
<stop stop-color="#E378B7"/>
<stop offset="1" stop-color="#FFDDD2"/>
</linearGradient>
<linearGradient id="paint11_linear_333_5953" x1="28.682" y1="28.0299" x2="30.8409" y2="28.1284" gradientUnits="userSpaceOnUse">
<stop stop-color="#E378B7"/>
<stop offset="1" stop-color="#FFDDD2"/>
</linearGradient>
<linearGradient id="paint12_linear_333_5953" x1="36.2679" y1="38.9813" x2="37.994" y2="39.0343" gradientUnits="userSpaceOnUse">
<stop stop-color="#E378B7"/>
<stop offset="1" stop-color="#FFDDD2"/>
</linearGradient>
<linearGradient id="paint13_linear_333_5953" x1="33.7508" y1="29.1404" x2="35.3469" y2="29.2155" gradientUnits="userSpaceOnUse">
<stop stop-color="#E378B7"/>
<stop offset="1" stop-color="#FFDDD2"/>
</linearGradient>
<linearGradient id="paint14_linear_333_5953" x1="32.8331" y1="25.8646" x2="35.161" y2="26.1016" gradientUnits="userSpaceOnUse">
<stop stop-color="#E378B7"/>
<stop offset="1" stop-color="#FFDDD2"/>
</linearGradient>
<linearGradient id="paint15_linear_333_5953" x1="31.0815" y1="34.3886" x2="32.2355" y2="34.4637" gradientUnits="userSpaceOnUse">
<stop stop-color="#E378B7"/>
<stop offset="1" stop-color="#FFDDD2"/>
</linearGradient>
<linearGradient id="paint16_linear_333_5953" x1="35.9258" y1="36.0369" x2="37.9624" y2="36.3038" gradientUnits="userSpaceOnUse">
<stop stop-color="#E378B7"/>
<stop offset="1" stop-color="#FFDDD2"/>
</linearGradient>
<linearGradient id="paint17_linear_333_5953" x1="25.6188" y1="36.0432" x2="27.5859" y2="36.3107" gradientUnits="userSpaceOnUse">
<stop stop-color="#E378B7"/>
<stop offset="1" stop-color="#FFDDD2"/>
</linearGradient>
<linearGradient id="paint18_linear_333_5953" x1="27.6084" y1="42.6124" x2="29.0557" y2="42.8683" gradientUnits="userSpaceOnUse">
<stop stop-color="#E378B7"/>
<stop offset="1" stop-color="#FFDDD2"/>
</linearGradient>
<linearGradient id="paint19_linear_333_5953" x1="32.1407" y1="42.3804" x2="33.7397" y2="42.6054" gradientUnits="userSpaceOnUse">
<stop stop-color="#E378B7"/>
<stop offset="1" stop-color="#FFDDD2"/>
</linearGradient>
<linearGradient id="paint20_linear_333_5953" x1="33.3108" y1="42.3788" x2="34.8086" y2="42.5748" gradientUnits="userSpaceOnUse">
<stop stop-color="#E378B7"/>
<stop offset="1" stop-color="#FFDDD2"/>
</linearGradient>
<linearGradient id="paint21_linear_333_5953" x1="36.9355" y1="35.0955" x2="37.8735" y2="35.1522" gradientUnits="userSpaceOnUse">
<stop stop-color="#E378B7"/>
<stop offset="1" stop-color="#FFDDD2"/>
</linearGradient>
<linearGradient id="paint22_linear_333_5953" x1="25.5701" y1="35.1205" x2="26.4739" y2="35.1755" gradientUnits="userSpaceOnUse">
<stop stop-color="#E378B7"/>
<stop offset="1" stop-color="#FFDDD2"/>
</linearGradient>
<linearGradient id="paint23_linear_333_5953" x1="24.8129" y1="34.9817" x2="25.6109" y2="35.0189" gradientUnits="userSpaceOnUse">
<stop stop-color="#E378B7"/>
<stop offset="1" stop-color="#FFDDD2"/>
</linearGradient>
<linearGradient id="paint24_linear_333_5953" x1="38.557" y1="36.5342" x2="39.5151" y2="36.6295" gradientUnits="userSpaceOnUse">
<stop stop-color="#E378B7"/>
<stop offset="1" stop-color="#FFDDD2"/>
</linearGradient>
<linearGradient id="paint25_linear_333_5953" x1="34.3666" y1="32.5275" x2="34.8834" y2="32.5316" gradientUnits="userSpaceOnUse">
<stop stop-color="#E378B7"/>
<stop offset="1" stop-color="#FFDDD2"/>
</linearGradient>
<linearGradient id="paint26_linear_333_5953" x1="32.0417" y1="29.3835" x2="32.3193" y2="29.3907" gradientUnits="userSpaceOnUse">
<stop stop-color="#E378B7"/>
<stop offset="1" stop-color="#FFDDD2"/>
</linearGradient>
<linearGradient id="paint27_linear_333_5953" x1="29.6485" y1="28.3495" x2="30.2475" y2="28.3993" gradientUnits="userSpaceOnUse">
<stop stop-color="#E378B7"/>
<stop offset="1" stop-color="#FFDDD2"/>
</linearGradient>
<linearGradient id="paint28_linear_333_5953" x1="31.5456" y1="7.81364" x2="54.9951" y2="38.3494" gradientUnits="userSpaceOnUse">
<stop stop-color="#E378B7"/>
<stop offset="1" stop-color="#F0F0F0"/>
</linearGradient>
</defs>
</svg>
