<svg width="207" height="338" viewBox="0 0 207 338" fill="none" xmlns="http://www.w3.org/2000/svg">
<path d="M237.587 60.3623C237.675 125.508 236.561 198.906 191.288 250.803C148.947 299.343 73.3073 316.931 13.3056 294.17" stroke="#E378B7" stroke-width="0.5" stroke-linecap="round" stroke-linejoin="round"/>
<path d="M224.176 190.522C219.003 217.343 213.8 244.266 204.904 270.075" stroke="#E378B7" stroke-width="0.5" stroke-linecap="round" stroke-linejoin="round"/>
<path d="M178.684 263.509C165.376 274.032 148.141 274.56 135.156 271.746" stroke="#E378B7" stroke-width="0.5" stroke-linecap="round" stroke-linejoin="round"/>
<path d="M133.719 291.238C114.432 300.882 104.818 314.981 96.5223 331.967" stroke="#E378B7" stroke-width="0.5" stroke-linecap="round" stroke-linejoin="round"/>
<path d="M74.978 303.916C51.0594 304.766 21.5568 280.891 18.2299 254.73" stroke="#E378B7" stroke-width="0.5" stroke-linecap="round" stroke-linejoin="round"/>
<path d="M27.8443 277.594C23.8579 271.336 24.3415 263.744 27.5805 258.248C31.0247 252.371 37.3707 249.44 43.7461 249.762" stroke="#E378B7" stroke-width="0.5" stroke-linecap="round" stroke-linejoin="round"/>
<path d="M36.6381 250.935C37.62 249.806 38.1623 248.311 38.1477 246.802C38.133 245.307 37.6933 243.9 36.5502 242.713C34.3518 244.867 34.6302 249.117 36.6381 250.935Z" stroke="#E378B7" stroke-width="0.5" stroke-linecap="round" stroke-linejoin="round"/>
<path d="M36.5795 242.815C36.5648 245.38 36.6235 247.93 36.7554 250.495" stroke="#E378B7" stroke-width="0.5" stroke-linecap="round" stroke-linejoin="round"/>
<path d="M28.7236 256.372C29.1486 254.364 28.8262 252.21 27.8149 250.436C26.8037 248.648 25.3674 247.256 23.1983 246.582C21.9818 250.597 25.1182 255.522 28.7236 256.372Z" stroke="#E378B7" stroke-width="0.5" stroke-linecap="round" stroke-linejoin="round"/>
<path d="M23.3156 246.684C24.9718 249.762 26.7305 252.796 28.5771 255.771" stroke="#E378B7" stroke-width="0.5" stroke-linecap="round" stroke-linejoin="round"/>
<path d="M19.9888 262.938C18.6258 261.414 16.6912 260.402 14.654 260.153C12.6168 259.904 10.6382 260.241 8.82089 261.604C11.3417 264.96 17.1748 265.341 19.9888 262.938Z" stroke="#E378B7" stroke-width="0.5" stroke-linecap="round" stroke-linejoin="round"/>
<path d="M8.98191 261.575C12.4407 262.058 15.9289 262.425 19.417 262.703" stroke="#E378B7" stroke-width="0.5" stroke-linecap="round" stroke-linejoin="round"/>
<path d="M33.6187 284.951C32.2556 283.427 30.321 282.416 28.2839 282.166C26.2467 281.917 24.2681 282.254 22.4508 283.617C24.9716 286.974 30.8047 287.355 33.6187 284.951Z" stroke="#E378B7" stroke-width="0.5" stroke-linecap="round" stroke-linejoin="round"/>
<path d="M22.6123 283.573C26.0711 284.057 29.5592 284.424 33.0474 284.702" stroke="#E378B7" stroke-width="0.5" stroke-linecap="round" stroke-linejoin="round"/>
<path d="M2.41597 141.102C1.28746 142.802 0.789173 144.927 1.08229 146.965C1.37541 149.002 2.19614 150.834 3.95486 152.241C6.56363 148.943 5.44977 143.227 2.41597 141.102Z" stroke="#E378B7" stroke-width="0.5" stroke-linecap="round" stroke-linejoin="round"/>
<path d="M3.88184 152.109C3.47147 148.635 2.94385 145.177 2.3283 141.732" stroke="#E378B7" stroke-width="0.5" stroke-linecap="round" stroke-linejoin="round"/>
<path d="M153.74 307.99C153.637 310.042 154.297 312.109 155.572 313.721C156.847 315.318 158.488 316.476 160.731 316.799C161.302 312.636 157.433 308.269 153.74 307.99Z" stroke="#E378B7" stroke-width="0.5" stroke-linecap="round" stroke-linejoin="round"/>
<path d="M160.599 316.711C158.474 313.926 156.26 311.215 153.974 308.577" stroke="#E378B7" stroke-width="0.5" stroke-linecap="round" stroke-linejoin="round"/>
<path d="M95.1741 55.13C93.2542 55.8481 91.6274 57.2844 90.6601 59.1018C89.7074 60.9045 89.2971 62.883 89.9126 65.0668C93.9577 63.9236 96.4052 58.6181 95.1741 55.13Z" stroke="#E378B7" stroke-width="0.5" stroke-linecap="round" stroke-linejoin="round"/>
<path d="M89.9419 64.9201C91.6419 61.857 93.2395 58.7499 94.749 55.5842" stroke="#E378B7" stroke-width="0.5" stroke-linecap="round" stroke-linejoin="round"/>
<path d="M39.4958 143.858C37.869 144.18 36.3741 145.103 35.3628 146.422C34.3515 147.741 33.7653 149.251 33.9558 151.068C37.3414 150.702 39.9941 146.803 39.4958 143.858Z" stroke="#E378B7" stroke-width="0.5" stroke-linecap="round" stroke-linejoin="round"/>
<path d="M34.0003 150.951C35.759 148.738 37.4591 146.481 39.0859 144.165" stroke="#E378B7" stroke-width="0.5" stroke-linecap="round" stroke-linejoin="round"/>
<path d="M200.551 307.096C199.877 305.587 198.645 304.326 197.136 303.638C195.626 302.949 194.014 302.714 192.285 303.315C193.399 306.525 197.795 308.254 200.551 307.096Z" stroke="#E378B7" stroke-width="0.5" stroke-linecap="round" stroke-linejoin="round"/>
<path d="M192.402 303.315C194.952 304.546 197.546 305.689 200.155 306.759" stroke="#E378B7" stroke-width="0.5" stroke-linecap="round" stroke-linejoin="round"/>
<path d="M79.7559 256.093C79.0817 254.584 77.8506 253.323 76.341 252.635C74.8314 251.946 73.2193 251.711 71.4899 252.312C72.6037 255.522 77.0005 257.251 79.7559 256.093Z" stroke="#E378B7" stroke-width="0.5" stroke-linecap="round" stroke-linejoin="round"/>
<path d="M71.6073 252.312C74.1575 253.543 76.7516 254.687 79.3604 255.756" stroke="#E378B7" stroke-width="0.5" stroke-linecap="round" stroke-linejoin="round"/>
<path d="M66.9023 99.7869C66.2282 98.2773 64.9971 97.0169 63.4875 96.3281C61.9779 95.6393 60.3658 95.4048 58.6363 96.0057C59.7502 99.2153 64.147 100.945 66.9023 99.7869Z" stroke="#E378B7" stroke-width="0.5" stroke-linecap="round" stroke-linejoin="round"/>
<path d="M58.768 96.0203C61.3181 97.2514 63.9122 98.3946 66.521 99.4645" stroke="#E378B7" stroke-width="0.5" stroke-linecap="round" stroke-linejoin="round"/>
<path d="M34.7473 318.601C34.0732 320.111 33.9559 321.87 34.4542 323.452C34.9379 325.035 35.8465 326.384 37.444 327.292C39.1002 324.317 37.444 319.906 34.762 318.616" stroke="#E378B7" stroke-width="0.5" stroke-linecap="round" stroke-linejoin="round"/>
<path d="M37.356 327.19C36.5645 324.478 35.6998 321.782 34.7472 319.114" stroke="#E378B7" stroke-width="0.5" stroke-linecap="round" stroke-linejoin="round"/>
<path d="M185.455 327.307C183.828 327.629 182.334 328.553 181.322 329.872C180.311 331.191 179.725 332.7 179.915 334.518C183.301 334.151 185.954 330.253 185.455 327.307Z" stroke="#E378B7" stroke-width="0.5" stroke-linecap="round" stroke-linejoin="round"/>
<path d="M179.959 334.401C181.718 332.188 183.418 329.931 185.045 327.615" stroke="#E378B7" stroke-width="0.5" stroke-linecap="round" stroke-linejoin="round"/>
<path d="M29.2515 299.431C26.8332 298.684 24.1512 298.845 21.8502 299.886C19.5492 300.926 17.6585 302.553 16.6033 305.132C21.4105 307.082 27.8152 303.755 29.2515 299.417" stroke="#E378B7" stroke-width="0.5" stroke-linecap="round" stroke-linejoin="round"/>
<path d="M16.7351 305.015C20.7069 303.315 24.6201 301.483 28.4893 299.548" stroke="#E378B7" stroke-width="0.5" stroke-linecap="round" stroke-linejoin="round"/>
<path d="M40.7267 258.145C41.0637 256.68 40.8439 255.111 40.1258 253.792C39.4076 252.473 38.3671 251.433 36.7989 250.92C35.8609 253.851 38.1032 257.471 40.7267 258.145Z" stroke="#E378B7" stroke-width="0.5" stroke-linecap="round" stroke-linejoin="round"/>
<path d="M36.7989 250.876C37.8981 253.235 39.1145 255.522 40.4629 257.75" stroke="#E378B7" stroke-width="0.5" stroke-linecap="round" stroke-linejoin="round"/>
<path d="M38.2207 262.615C37.7517 260.622 36.5206 258.82 34.8498 257.632C33.179 256.445 31.2737 255.8 29.0314 256.137C29.6469 260.3 34.6007 263.392 38.2207 262.615Z" stroke="#E378B7" stroke-width="0.5" stroke-linecap="round" stroke-linejoin="round"/>
<path d="M29.0019 256.064C31.7718 258.292 34.6591 260.358 37.6489 262.278" stroke="#E378B7" stroke-width="0.5" stroke-linecap="round" stroke-linejoin="round"/>
<path d="M155.279 69.874C156.466 71.5448 158.283 72.7612 160.276 73.2156C162.269 73.6846 164.277 73.5673 166.227 72.4095C164.087 68.7894 158.342 67.7928 155.279 69.8593" stroke="#E378B7" stroke-width="0.5" stroke-linecap="round" stroke-linejoin="round"/>
<path d="M166.08 72.4387C162.695 71.5887 159.265 70.8266 155.836 70.1817" stroke="#E378B7" stroke-width="0.5" stroke-linecap="round" stroke-linejoin="round"/>
<path d="M144.272 72.6586C146.06 73.6552 148.214 73.9777 150.222 73.538C152.23 73.0983 153.989 72.131 155.264 70.255C151.776 67.9101 146.148 69.4636 144.286 72.6586" stroke="#E378B7" stroke-width="0.5" stroke-linecap="round" stroke-linejoin="round"/>
<path d="M155.322 70.2991C151.819 70.8413 148.331 71.5595 144.902 72.4682" stroke="#E378B7" stroke-width="0.5" stroke-linecap="round" stroke-linejoin="round"/>
<path d="M155.425 28.3095C153.402 27.9578 151.262 28.3681 149.518 29.4527C147.774 30.5226 146.426 32.0321 145.854 34.2159C149.929 35.2711 154.707 31.9442 155.425 28.3095Z" stroke="#E378B7" stroke-width="0.5" stroke-linecap="round" stroke-linejoin="round"/>
<path d="M145.942 34.084C148.947 32.296 151.907 30.4347 154.809 28.4708" stroke="#E378B7" stroke-width="0.5" stroke-linecap="round" stroke-linejoin="round"/>
<path d="M161.273 18.5633C159.294 19.1202 157.55 20.41 156.436 22.1247C155.322 23.8395 154.751 25.7741 155.176 28.0018C159.309 27.2103 162.196 22.154 161.287 18.5633" stroke="#E378B7" stroke-width="0.5" stroke-linecap="round" stroke-linejoin="round"/>
<path d="M155.102 28.0311C157.213 25.1732 159.177 22.2127 160.979 19.1496" stroke="#E378B7" stroke-width="0.5" stroke-linecap="round" stroke-linejoin="round"/>
<path d="M101.183 323.233C101.256 325.285 102.106 327.292 103.513 328.773C104.92 330.253 106.665 331.264 108.936 331.367C109.127 327.161 104.876 323.174 101.183 323.233Z" stroke="#E378B7" stroke-width="0.5" stroke-linecap="round" stroke-linejoin="round"/>
<path d="M108.804 331.308C106.445 328.729 103.997 326.223 101.476 323.804" stroke="#E378B7" stroke-width="0.5" stroke-linecap="round" stroke-linejoin="round"/>
<path d="M90.4404 319.525C91.393 321.342 93.0198 322.793 94.9251 323.526C96.8304 324.259 98.8383 324.42 100.934 323.555C99.3073 319.671 93.7526 317.898 90.4404 319.525Z" stroke="#E378B7" stroke-width="0.5" stroke-linecap="round" stroke-linejoin="round"/>
<path d="M100.978 323.614C97.7537 322.133 94.4414 320.829 91.0706 319.7" stroke="#E378B7" stroke-width="0.5" stroke-linecap="round" stroke-linejoin="round"/>
<path d="M184.708 257.984C184.781 260.036 185.631 262.044 187.038 263.524C188.445 265.004 190.189 266.016 192.461 266.118C192.651 261.912 188.401 257.925 184.708 257.984Z" stroke="#E378B7" stroke-width="0.5" stroke-linecap="round" stroke-linejoin="round"/>
<path d="M192.329 266.06C189.969 263.48 187.521 260.974 185.001 258.556" stroke="#E378B7" stroke-width="0.5" stroke-linecap="round" stroke-linejoin="round"/>
<path d="M173.965 254.276C174.917 256.093 176.544 257.544 178.45 258.277C180.355 259.01 182.363 259.171 184.458 258.306C182.832 254.423 177.277 252.649 173.965 254.276Z" stroke="#E378B7" stroke-width="0.5" stroke-linecap="round" stroke-linejoin="round"/>
<path d="M184.502 258.35C181.278 256.87 177.966 255.566 174.595 254.437" stroke="#E378B7" stroke-width="0.5" stroke-linecap="round" stroke-linejoin="round"/>
<path d="M37.9573 274.428C36.1692 275.41 34.7476 277.066 34.0588 279.001C33.3699 280.935 33.2527 282.943 34.1614 285.01C38.0012 283.31 39.672 277.711 37.9573 274.428Z" stroke="#E378B7" stroke-width="0.5" stroke-linecap="round" stroke-linejoin="round"/>
<path d="M34.1026 285.054C35.5096 281.8 36.7407 278.458 37.7959 275.073" stroke="#E378B7" stroke-width="0.5" stroke-linecap="round" stroke-linejoin="round"/>
<path d="M17.3799 295.723C15.6944 295.547 13.9357 296.002 12.5434 296.984C11.1511 297.966 10.1252 299.285 9.75876 301.131C13.1883 301.791 16.9842 298.772 17.3799 295.723Z" stroke="#E378B7" stroke-width="0.5" stroke-linecap="round" stroke-linejoin="round"/>
<path d="M9.83229 301.014C12.2359 299.373 14.5955 297.672 16.8818 295.884" stroke="#E378B7" stroke-width="0.5" stroke-linecap="round" stroke-linejoin="round"/>
<path d="M14.1851 286.812C13.6282 288.425 13.6868 290.227 14.3317 291.81C14.9766 293.378 16.0318 294.683 17.7465 295.46C19.1682 292.265 17.0724 287.882 14.1851 286.812Z" stroke="#E378B7" stroke-width="0.5" stroke-linecap="round" stroke-linejoin="round"/>
<path d="M17.7319 295.518C16.7793 292.719 15.6801 289.978 14.4343 287.311" stroke="#E378B7" stroke-width="0.5" stroke-linecap="round" stroke-linejoin="round"/>
<path d="M42.1484 292.352C40.2725 291.004 37.8982 290.374 35.5972 290.608C33.2962 290.843 31.2004 291.693 29.5443 293.628C33.1497 296.705 39.6423 295.679 42.1484 292.352Z" stroke="#E378B7" stroke-width="0.5" stroke-linecap="round" stroke-linejoin="round"/>
<path d="M29.7054 293.554C33.6332 293.232 37.561 292.792 41.4595 292.22" stroke="#E378B7" stroke-width="0.5" stroke-linecap="round" stroke-linejoin="round"/>
<path d="M44.3323 279.719C42.6029 281.243 41.4451 283.412 41.1666 285.699C40.8735 287.985 41.2399 290.227 42.7641 292.279C46.5747 289.465 47.029 282.899 44.3469 279.704" stroke="#E378B7" stroke-width="0.5" stroke-linecap="round" stroke-linejoin="round"/>
<path d="M42.7057 292.352C43.4532 288.425 43.9954 284.453 44.3179 280.466" stroke="#E378B7" stroke-width="0.5" stroke-linecap="round" stroke-linejoin="round"/>
<path d="M204.347 26.0232C202.486 27.3862 201.137 29.4381 200.624 31.6804C200.126 33.9375 200.273 36.1945 201.592 38.3782C205.651 35.9307 206.721 29.4381 204.347 26.0085" stroke="#E378B7" stroke-width="0.5" stroke-linecap="round" stroke-linejoin="round"/>
<path d="M201.577 38.217C202.5 34.3918 203.321 30.5226 204.01 26.6387" stroke="#E378B7" stroke-width="0.5" stroke-linecap="round" stroke-linejoin="round"/>
<path d="M193.032 19.9703C193.941 22.0955 195.641 23.8688 197.722 24.8654C199.803 25.8621 202.046 26.2138 204.479 25.4224C202.998 20.923 196.916 18.4315 193.047 19.9703" stroke="#E378B7" stroke-width="0.5" stroke-linecap="round" stroke-linejoin="round"/>
<path d="M204.508 25.4956C201.005 23.5463 197.414 21.7876 193.736 20.2341" stroke="#E378B7" stroke-width="0.5" stroke-linecap="round" stroke-linejoin="round"/>
<path d="M89.2534 303.066C87.1576 304.048 85.4428 305.807 84.5341 307.917C83.6108 310.028 83.3323 312.285 84.2117 314.688C88.6525 313.047 90.9388 306.891 89.268 303.066" stroke="#E378B7" stroke-width="0.5" stroke-linecap="round" stroke-linejoin="round"/>
<path d="M84.212 314.512C85.8534 310.922 87.3777 307.287 88.7993 303.608" stroke="#E378B7" stroke-width="0.5" stroke-linecap="round" stroke-linejoin="round"/>
<path d="M109.889 311.039C108.819 313.091 108.526 315.524 109.083 317.766C109.64 320.008 110.783 321.972 112.937 323.335C115.473 319.334 113.553 313.047 109.889 311.039Z" stroke="#E378B7" stroke-width="0.5" stroke-linecap="round" stroke-linejoin="round"/>
<path d="M112.835 323.189C111.956 319.349 110.974 315.524 109.86 311.742" stroke="#E378B7" stroke-width="0.5" stroke-linecap="round" stroke-linejoin="round"/>
<path d="M109.303 310.614C107.339 309.412 104.921 308.958 102.649 309.368C100.377 309.778 98.34 310.79 96.8305 312.841C100.656 315.641 107.06 314.131 109.303 310.628" stroke="#E378B7" stroke-width="0.5" stroke-linecap="round" stroke-linejoin="round"/>
<path d="M96.9774 312.739C100.876 312.123 104.745 311.39 108.6 310.526" stroke="#E378B7" stroke-width="0.5" stroke-linecap="round" stroke-linejoin="round"/>
<path d="M79.2872 294.976C79.7709 297.233 81.1045 299.299 82.9512 300.662C84.8125 302.04 86.9377 302.817 89.4731 302.494C88.8722 297.79 83.3762 294.184 79.2872 294.976Z" stroke="#E378B7" stroke-width="0.5" stroke-linecap="round" stroke-linejoin="round"/>
<path d="M89.5024 302.582C86.4393 300.003 83.2443 297.599 79.9174 295.371" stroke="#E378B7" stroke-width="0.5" stroke-linecap="round" stroke-linejoin="round"/>
<path d="M179.138 263.465C178.054 265.503 177.732 267.935 178.274 270.178C178.801 272.42 179.93 274.399 182.07 275.791C184.649 271.819 182.773 265.517 179.138 263.465Z" stroke="#E378B7" stroke-width="0.5" stroke-linecap="round" stroke-linejoin="round"/>
<path d="M181.967 275.644C181.132 271.79 180.165 267.965 179.095 264.169" stroke="#E378B7" stroke-width="0.5" stroke-linecap="round" stroke-linejoin="round"/>
<path d="M166.329 262.967C168.073 264.477 170.374 265.341 172.675 265.327C174.976 265.312 177.16 264.653 178.992 262.879C175.694 259.479 169.128 259.889 166.329 262.967Z" stroke="#E378B7" stroke-width="0.5" stroke-linecap="round" stroke-linejoin="round"/>
<path d="M179.05 262.923C175.049 262.703 171.048 262.689 167.047 262.894" stroke="#E378B7" stroke-width="0.5" stroke-linecap="round" stroke-linejoin="round"/>
<path d="M158.752 53.6205C158.532 56.3172 159.323 59.0872 160.95 61.2416C162.562 63.4107 164.702 65.0082 167.648 65.5065C168.571 60.0252 163.617 54.1188 158.766 53.6205" stroke="#E378B7" stroke-width="0.5" stroke-linecap="round" stroke-linejoin="round"/>
<path d="M167.472 65.3892C164.775 61.6373 161.961 57.9733 159.044 54.3826" stroke="#E378B7" stroke-width="0.5" stroke-linecap="round" stroke-linejoin="round"/>
<path d="M144.741 59.0432C147.32 59.864 150.193 59.7027 152.67 58.6182C155.147 57.5336 157.169 55.8042 158.327 53.0489C153.198 50.9238 146.324 54.4266 144.741 59.0432Z" stroke="#E378B7" stroke-width="0.5" stroke-linecap="round" stroke-linejoin="round"/>
<path d="M158.415 53.0782C154.018 54.7051 149.709 56.5517 145.503 58.6329" stroke="#E378B7" stroke-width="0.5" stroke-linecap="round" stroke-linejoin="round"/>
<path d="M130.129 28.6319C132.708 29.4526 135.581 29.2914 138.058 28.2069C140.534 27.1223 142.557 25.3929 143.715 22.6376C138.585 20.5125 131.712 24.0153 130.129 28.6319Z" stroke="#E378B7" stroke-width="0.5" stroke-linecap="round" stroke-linejoin="round"/>
<path d="M143.803 22.6522C139.406 24.279 135.097 26.1257 130.891 28.2069" stroke="#E378B7" stroke-width="0.5" stroke-linecap="round" stroke-linejoin="round"/>
<path d="M201.459 248.223C203.687 248.839 206.135 248.633 208.201 247.622C210.282 246.611 211.953 245.087 212.862 242.698C208.421 241.042 202.676 244.237 201.459 248.223Z" stroke="#E378B7" stroke-width="0.5" stroke-linecap="round" stroke-linejoin="round"/>
<path d="M212.95 242.712C209.242 244.222 205.622 245.937 202.104 247.842" stroke="#E378B7" stroke-width="0.5" stroke-linecap="round" stroke-linejoin="round"/>
<path d="M148.581 284.687C147.174 286.519 146.47 288.864 146.632 291.18C146.793 293.481 147.584 295.606 149.46 297.336C152.655 293.833 151.82 287.311 148.581 284.702" stroke="#E378B7" stroke-width="0.5" stroke-linecap="round" stroke-linejoin="round"/>
<path d="M149.401 297.16C149.196 293.217 148.874 289.289 148.434 285.376" stroke="#E378B7" stroke-width="0.5" stroke-linecap="round" stroke-linejoin="round"/>
<path d="M136.02 282.108C137.486 283.881 139.626 285.098 141.912 285.464C144.198 285.816 146.441 285.523 148.537 284.086C145.84 280.188 139.289 279.528 136.02 282.123" stroke="#E378B7" stroke-width="0.5" stroke-linecap="round" stroke-linejoin="round"/>
<path d="M148.595 284.145C144.697 283.28 140.74 282.621 136.768 282.166" stroke="#E378B7" stroke-width="0.5" stroke-linecap="round" stroke-linejoin="round"/>
<path d="M193.868 248.238C192.827 250.304 192.578 252.737 193.164 254.98C193.751 257.207 194.923 259.157 197.107 260.49C199.584 256.445 197.561 250.202 193.868 248.238Z" stroke="#E378B7" stroke-width="0.5" stroke-linecap="round" stroke-linejoin="round"/>
<path d="M197.004 260.344C196.066 256.518 195.026 252.708 193.853 248.941" stroke="#E378B7" stroke-width="0.5" stroke-linecap="round" stroke-linejoin="round"/>
<path d="M181.044 248.062C182.817 249.528 185.147 250.334 187.448 250.26C189.749 250.187 191.904 249.469 193.707 247.666C190.321 244.354 183.77 244.926 181.044 248.077" stroke="#E378B7" stroke-width="0.5" stroke-linecap="round" stroke-linejoin="round"/>
<path d="M193.78 247.696C189.779 247.578 185.778 247.666 181.791 247.959" stroke="#E378B7" stroke-width="0.5" stroke-linecap="round" stroke-linejoin="round"/>
<path d="M150.325 264.477C150.852 266.719 152.215 268.771 154.091 270.105C155.967 271.438 158.122 272.186 160.643 271.834C159.968 267.144 154.414 263.627 150.325 264.477Z" stroke="#E378B7" stroke-width="0.5" stroke-linecap="round" stroke-linejoin="round"/>
<path d="M160.672 271.907C157.565 269.386 154.326 267.027 150.97 264.843" stroke="#E378B7" stroke-width="0.5" stroke-linecap="round" stroke-linejoin="round"/>
<path d="M78.1 303.696C76.6051 304.268 75.33 305.396 74.5826 306.818C73.8351 308.239 73.5273 309.778 74.011 311.478C77.1767 310.57 79.0673 306.407 78.0853 303.681" stroke="#E378B7" stroke-width="0.5" stroke-linecap="round" stroke-linejoin="round"/>
<path d="M74.0401 311.376C75.3591 308.972 76.5902 306.539 77.7627 304.062" stroke="#E378B7" stroke-width="0.5" stroke-linecap="round" stroke-linejoin="round"/>
<path d="M71.6074 297.599C71.8272 299.182 72.648 300.677 73.8644 301.718C75.0809 302.758 76.5171 303.403 78.2905 303.315C78.1147 300.032 74.48 297.262 71.6074 297.599Z" stroke="#E378B7" stroke-width="0.5" stroke-linecap="round" stroke-linejoin="round"/>
<path d="M78.3052 303.374C76.312 301.439 74.2161 299.607 72.0324 297.892" stroke="#E378B7" stroke-width="0.5" stroke-linecap="round" stroke-linejoin="round"/>
<path d="M107.998 292.001C108.218 293.583 109.039 295.078 110.255 296.119C111.471 297.16 112.908 297.804 114.681 297.716C114.505 294.434 110.871 291.664 107.998 292.001Z" stroke="#E378B7" stroke-width="0.5" stroke-linecap="round" stroke-linejoin="round"/>
<path d="M114.696 297.775C112.703 295.841 110.607 294.009 108.423 292.294" stroke="#E378B7" stroke-width="0.5" stroke-linecap="round" stroke-linejoin="round"/>
<path d="M97.3137 329.608C97.0499 331.191 97.4016 332.862 98.2517 334.21C99.1017 335.558 100.289 336.599 102.004 337.039C102.795 333.843 100.157 330.136 97.3137 329.608Z" stroke="#E378B7" stroke-width="0.5" stroke-linecap="round" stroke-linejoin="round"/>
<path d="M101.916 336.965C100.494 334.62 99.0136 332.319 97.4601 330.077" stroke="#E378B7" stroke-width="0.5" stroke-linecap="round" stroke-linejoin="round"/>
<path d="M88.7984 332.158C90.2787 332.759 91.9934 332.803 93.503 332.275C95.0126 331.748 96.2877 330.825 97.1084 329.256C94.1772 327.761 89.9563 329.505 88.8131 332.158" stroke="#E378B7" stroke-width="0.5" stroke-linecap="round" stroke-linejoin="round"/>
<path d="M97.1523 329.271C94.4849 330.018 91.8469 330.912 89.2674 331.953" stroke="#E378B7" stroke-width="0.5" stroke-linecap="round" stroke-linejoin="round"/>
<path d="M206.75 266.353C206.486 267.936 206.838 269.606 207.688 270.955C208.538 272.303 209.725 273.344 211.44 273.783C212.232 270.588 209.593 266.88 206.75 266.353Z" stroke="#E378B7" stroke-width="0.5" stroke-linecap="round" stroke-linejoin="round"/>
<path d="M211.352 273.725C209.93 271.38 208.45 269.079 206.897 266.836" stroke="#E378B7" stroke-width="0.5" stroke-linecap="round" stroke-linejoin="round"/>
<path d="M198.221 268.918C199.701 269.518 201.416 269.562 202.925 269.035C204.435 268.507 205.71 267.584 206.531 266.016C203.6 264.521 199.379 266.265 198.235 268.918" stroke="#E378B7" stroke-width="0.5" stroke-linecap="round" stroke-linejoin="round"/>
<path d="M206.575 266.016C203.907 266.763 201.269 267.657 198.69 268.698" stroke="#E378B7" stroke-width="0.5" stroke-linecap="round" stroke-linejoin="round"/>
<path d="M158.019 86.3474C158.854 87.7104 160.217 88.751 161.742 89.22C163.266 89.689 164.849 89.689 166.432 88.8976C164.951 85.9664 160.511 84.8818 158.019 86.3474Z" stroke="#E378B7" stroke-width="0.5" stroke-linecap="round" stroke-linejoin="round"/>
<path d="M166.314 88.8976C163.705 88.0622 161.082 87.3001 158.429 86.6113" stroke="#E378B7" stroke-width="0.5" stroke-linecap="round" stroke-linejoin="round"/>
<path d="M153.241 93.8658C154.766 93.3529 156.07 92.2683 156.876 90.876C157.682 89.4837 158.034 87.9595 157.609 86.23C154.414 87.0215 152.377 91.0958 153.241 93.8658Z" stroke="#E378B7" stroke-width="0.5" stroke-linecap="round" stroke-linejoin="round"/>
<path d="M157.667 86.2008C156.143 88.5165 154.736 90.92 153.461 93.3823" stroke="#E378B7" stroke-width="0.5" stroke-linecap="round" stroke-linejoin="round"/>
<path d="M155.689 76.5571C156.348 78.0227 157.55 79.2245 159.016 79.884C160.481 80.5435 162.035 80.7487 163.706 80.1771C162.606 77.07 158.356 75.4432 155.689 76.5717" stroke="#E378B7" stroke-width="0.5" stroke-linecap="round" stroke-linejoin="round"/>
<path d="M163.588 80.1479C161.112 78.9754 158.605 77.8909 156.07 76.8649" stroke="#E378B7" stroke-width="0.5" stroke-linecap="round" stroke-linejoin="round"/>
<path d="M149.987 83.3869C151.556 83.0644 153.007 82.1704 153.974 80.8953C154.941 79.6203 155.498 78.14 155.308 76.3813C152.039 76.7477 149.489 80.5436 149.987 83.3869Z" stroke="#E378B7" stroke-width="0.5" stroke-linecap="round" stroke-linejoin="round"/>
<path d="M155.352 76.3667C153.534 78.4772 151.834 80.6756 150.251 82.9472" stroke="#E378B7" stroke-width="0.5" stroke-linecap="round" stroke-linejoin="round"/>
<path d="M146.309 12.2172C147.188 10.8835 147.555 9.21273 147.32 7.62988C147.086 6.04703 146.426 4.61074 145.034 3.51154C143.011 6.10565 143.92 10.5757 146.294 12.2172" stroke="#E378B7" stroke-width="0.5" stroke-linecap="round" stroke-linejoin="round"/>
<path d="M145.093 3.61414C145.43 6.3255 145.869 9.03686 146.368 11.7189" stroke="#E378B7" stroke-width="0.5" stroke-linecap="round" stroke-linejoin="round"/>
<path d="M155.146 13.3457C154.033 12.1879 152.494 11.4551 150.896 11.3232C149.299 11.1913 147.76 11.5137 146.382 12.6276C148.449 15.1777 153.021 15.295 155.146 13.3457Z" stroke="#E378B7" stroke-width="0.5" stroke-linecap="round" stroke-linejoin="round"/>
<path d="M146.338 12.5983C149.094 12.994 151.849 13.2431 154.634 13.3604" stroke="#E378B7" stroke-width="0.5" stroke-linecap="round" stroke-linejoin="round"/>
<path d="M164.409 43.2293C163.764 44.6949 163.676 46.395 164.16 47.9192C164.644 49.4435 165.523 50.7479 167.076 51.5979C168.659 48.7107 167.032 44.4458 164.409 43.2147" stroke="#E378B7" stroke-width="0.5" stroke-linecap="round" stroke-linejoin="round"/>
<path d="M167.003 51.51C166.227 48.8865 165.362 46.2924 164.424 43.713" stroke="#E378B7" stroke-width="0.5" stroke-linecap="round" stroke-linejoin="round"/>
<path d="M155.513 43.5518C156.803 44.5045 158.43 44.9735 160.027 44.8416C161.625 44.7096 163.09 44.1381 164.277 42.819C161.815 40.6353 157.301 41.2655 155.513 43.5372" stroke="#E378B7" stroke-width="0.5" stroke-linecap="round" stroke-linejoin="round"/>
<path d="M164.321 42.863C161.551 42.9216 158.767 43.1268 156.011 43.4639" stroke="#E378B7" stroke-width="0.5" stroke-linecap="round" stroke-linejoin="round"/>
<path d="M183.125 23.7662C183.023 25.3637 183.521 26.9905 184.503 28.2656C185.485 29.526 186.76 30.4493 188.519 30.7131C189.002 27.4595 186.012 24.0153 183.125 23.7662Z" stroke="#E378B7" stroke-width="0.5" stroke-linecap="round" stroke-linejoin="round"/>
<path d="M188.519 30.7717C186.95 28.4707 185.28 26.2577 183.477 24.1472" stroke="#E378B7" stroke-width="0.5" stroke-linecap="round" stroke-linejoin="round"/>
<path d="M198.455 231.779C199.935 232.38 201.65 232.424 203.16 231.896C204.669 231.369 205.944 230.445 206.765 228.877C203.834 227.382 199.613 229.126 198.47 231.779" stroke="#E378B7" stroke-width="0.5" stroke-linecap="round" stroke-linejoin="round"/>
<path d="M206.809 228.892C204.142 229.639 201.504 230.533 198.924 231.574" stroke="#E378B7" stroke-width="0.5" stroke-linecap="round" stroke-linejoin="round"/>
<path d="M138.453 288.938C137.515 290.242 137.076 291.883 137.237 293.481C137.398 295.078 137.999 296.529 139.333 297.687C141.473 295.181 140.754 290.682 138.453 288.938Z" stroke="#E378B7" stroke-width="0.5" stroke-linecap="round" stroke-linejoin="round"/>
<path d="M139.289 297.585C139.069 294.859 138.761 292.133 138.365 289.421" stroke="#E378B7" stroke-width="0.5" stroke-linecap="round" stroke-linejoin="round"/>
<path d="M159.016 272.611C157.418 272.669 155.836 273.329 154.678 274.428C153.52 275.527 152.728 276.89 152.626 278.664C155.909 278.825 159.045 275.513 159.016 272.625" stroke="#E378B7" stroke-width="0.5" stroke-linecap="round" stroke-linejoin="round"/>
<path d="M152.684 278.546C154.707 276.7 156.671 274.794 158.576 272.831" stroke="#E378B7" stroke-width="0.5" stroke-linecap="round" stroke-linejoin="round"/>
<path d="M129.689 287.428C130.744 288.63 132.254 289.421 133.836 289.626C135.419 289.832 136.988 289.568 138.409 288.527C136.445 285.889 131.902 285.567 129.689 287.428Z" stroke="#E378B7" stroke-width="0.5" stroke-linecap="round" stroke-linejoin="round"/>
<path d="M138.453 288.571C135.727 288.058 132.972 287.677 130.202 287.457" stroke="#E378B7" stroke-width="0.5" stroke-linecap="round" stroke-linejoin="round"/>
<path d="M139.992 265.195C139.699 266.763 139.992 268.448 140.813 269.826C141.634 271.204 142.791 272.274 144.492 272.743C145.371 269.577 142.821 265.796 139.978 265.195" stroke="#E378B7" stroke-width="0.5" stroke-linecap="round" stroke-linejoin="round"/>
<path d="M144.492 272.801C143.217 270.339 141.81 267.935 140.285 265.605" stroke="#E378B7" stroke-width="0.5" stroke-linecap="round" stroke-linejoin="round"/>
<path d="M55.5151 290.418C54.7091 292.147 54.5625 294.184 55.1048 296.016C55.6471 297.848 56.673 299.417 58.505 300.472C60.4542 297.072 58.6076 291.942 55.5151 290.418Z" stroke="#E378B7" stroke-width="0.5" stroke-linecap="round" stroke-linejoin="round"/>
<path d="M58.4756 300.53C57.7281 297.306 56.8195 294.111 55.7349 290.989" stroke="#E378B7" stroke-width="0.5" stroke-linecap="round" stroke-linejoin="round"/>
<path d="M233.131 0.961426C223.59 16.1597 207.571 27.1517 189.94 30.5666C172.324 33.9814 153.344 29.7898 138.82 19.2521" stroke="#E378B7" stroke-width="0.5" stroke-linecap="round" stroke-linejoin="round"/>
<path d="M183.579 31.4606C158.576 35.6375 148.17 69.3317 160.1 91.7261" stroke="#E378B7" stroke-width="0.5" stroke-linecap="round" stroke-linejoin="round"/>
<path d="M150.691 25.9939C144.887 22.5644 143.744 13.1699 149.489 9.60846" stroke="#E378B7" stroke-width="0.5" stroke-linecap="round" stroke-linejoin="round"/>
</svg>
