<svg width="24" height="24" viewBox="0 0 24 24" fill="none" xmlns="http://www.w3.org/2000/svg">
<path d="M7.65435 12.6401C8.13588 14.8987 9.35379 16.3005 11.7904 16.1753C10.8666 13.6261 9.34701 14.1094 7.65435 12.6401ZM9.13561 8.82957C8.42992 7.76338 7.48221 7.38496 6.27285 7.18895C6.70153 8.41792 6.39643 9.47484 6.74501 10.5315C7.04501 10.6713 7.34586 10.8417 7.63223 11.1076C7.50524 10.3985 7.6953 9.76103 7.4541 8.71264C7.41916 8.60014 7.51802 8.48765 7.63649 8.51747C8.1845 8.65554 8.68053 8.96322 9.1203 9.31008C9.10837 9.14815 9.11516 8.98722 9.13561 8.82957ZM14.8638 8.82957C14.8842 8.98724 14.891 9.14746 14.8791 9.30854C15.3197 8.9608 15.814 8.6557 16.3629 8.51678C16.4805 8.4878 16.5819 8.6003 16.5444 8.71195C16.2973 9.7628 16.495 10.3952 16.3672 11.1061C16.6535 10.841 16.9544 10.6705 17.2535 10.5308C17.603 9.4731 17.2978 8.41544 17.7257 7.18736C16.518 7.38253 15.5677 7.76349 14.8638 8.82798L14.8638 8.82957ZM16.2121 11.7434C16.1132 12.0613 15.9845 12.3681 15.8311 12.663C16.0407 12.5062 16.2547 12.3229 16.4728 12.103C16.5794 11.9948 16.7609 12.0937 16.7311 12.242C16.4916 13.707 15.9947 14.7953 15.243 15.5036C17.4844 14.4399 18.509 12.4038 18.8627 10.0217C18.0411 10.782 17.0175 10.6345 16.2128 11.7433L16.2121 11.7434ZM18.7792 11.7459C18.1689 13.6354 17.0124 15.0706 15.1681 15.8718C20.6968 15.2939 19.778 12.4814 22.403 11.1433C21.0606 10.5484 19.8616 10.7454 18.7792 11.7459ZM9.94107 16.2688C8.99421 18.0279 10.986 19.3099 12.0002 20.4688C13.0144 19.3098 15.0052 18.0287 14.0593 16.2688C12.5345 16.5731 11.4657 16.5757 9.94107 16.2688ZM18.7085 15.2163C17.8034 15.7183 16.4841 16.1001 14.3909 16.2484C14.6065 16.695 14.6619 17.1075 14.6065 17.4936C17.5094 19.5177 18.6267 17.474 21.291 16.7325C20.6313 15.8904 19.7611 15.3953 18.7085 15.2163ZM9.39322 17.4937C9.33867 17.1076 9.39322 16.6951 9.60969 16.2485C7.51565 16.1002 6.19711 15.7184 5.29122 15.2164C4.23782 15.3954 3.36849 15.8888 2.70882 16.7326C5.37217 17.4715 6.49118 19.5162 9.39322 17.4937ZM12.8431 8.84561C13.1584 9.29476 13.5121 9.81209 13.7925 10.4197C14.021 10.1283 14.2656 9.86065 14.5178 9.62373C14.7556 8.75356 14.2477 7.88338 13.9758 7.07711C13.4141 7.61576 13.0655 8.07854 12.8431 8.84561ZM13.1618 7.5118C13.0604 6.81889 12.3437 6.30669 11.9994 5.71265C11.655 6.30669 10.9391 6.81974 10.8369 7.5118C11.0781 7.83481 11.2451 8.151 11.3764 8.53367C11.592 8.22259 11.771 7.94901 11.8553 7.71124C11.9031 7.57743 12.094 7.57658 12.1425 7.71124C12.2278 7.94816 12.405 8.22174 12.6215 8.53282C12.7536 8.1493 12.9198 7.83566 13.161 7.5118H13.1618ZM10.0237 7.07798C9.75186 7.88508 9.24306 8.75696 9.48169 9.62548C9.73482 9.8624 9.97941 10.1309 10.207 10.4223C10.4874 9.81381 10.8402 9.29648 11.1556 8.84733C10.9254 8.05302 10.5905 7.62091 10.0229 7.07801L10.0237 7.07798ZM13.8906 13.7111C14.4181 10.6047 12.1946 8.85486 11.9994 8.12526C11.8204 8.85481 9.57887 10.5909 10.109 13.7111C10.2386 13.7776 10.3656 13.8475 10.49 13.9242C10.5156 12.7583 11.3363 12.1515 11.863 11.2659C11.9159 11.1594 12.0701 11.1525 12.1306 11.2565C12.6548 12.148 13.4815 12.7497 13.5088 13.9233C13.6323 13.8466 13.7602 13.7768 13.8897 13.7103L13.8906 13.7111ZM13.9298 10.7428C14.2366 11.5226 14.3738 12.5581 14.2289 13.5475C14.5758 13.3864 14.9235 13.2305 15.2559 13.0396C16.4329 11.2362 15.9471 10.597 16.1934 8.88909C15.313 9.20868 14.4838 9.99959 13.9298 10.7428ZM9.76993 13.5475C9.608 12.5401 9.76396 11.5242 10.0708 10.7434C9.51339 9.99599 8.68583 9.21021 7.80627 8.88974C8.05172 10.5985 7.56592 11.2361 8.74292 13.0396C9.0753 13.2296 9.42306 13.3864 9.76993 13.5475ZM12.2092 16.1759C14.6459 16.3012 15.8637 14.9001 16.3453 12.6407C14.6535 14.1118 13.1339 13.6268 12.2092 16.1759ZM13.1961 14.1416C13.2873 13.1137 12.5348 12.3876 11.9995 11.6155C11.4643 12.3876 10.71 13.1121 10.8029 14.1416C11.2546 14.4944 11.6561 14.9998 11.9995 15.8683C12.343 14.999 12.7444 14.4944 13.1961 14.1416ZM7.7826 11.7381C6.99254 10.6472 5.95277 10.7767 5.13801 10.0225C5.49171 12.4037 6.51784 14.4424 8.7594 15.5051C8.00599 14.7961 7.50911 13.7086 7.26963 12.2427C7.23895 12.0944 7.42133 11.9955 7.52787 12.1038C7.74605 12.3245 7.95998 12.5077 8.16963 12.6645C8.00173 12.3432 7.87805 12.0372 7.7826 11.7381ZM5.22071 11.7466C4.13833 10.746 2.93918 10.55 1.59692 11.1441C4.22798 12.5239 3.2742 15.2945 8.83096 15.8725C6.9875 15.0696 5.83096 13.6352 5.22071 11.7466Z" fill="url(#paint0_linear_331_5823)"/>
<defs>
<linearGradient id="paint0_linear_331_5823" x1="12.0001" y1="-2.7273" x2="24.4639" y2="20.1571" gradientUnits="userSpaceOnUse">
<stop stop-color="#E378B7"/>
<stop offset="1" stop-color="#F0F0F0"/>
</linearGradient>
</defs>
</svg>
