<svg width="81" height="71" viewBox="0 0 81 71" fill="none" xmlns="http://www.w3.org/2000/svg">
<path fill-rule="evenodd" clip-rule="evenodd" d="M54.4933 70.762C56.8038 69.8837 60.4096 67.9544 63.0188 66.2005C66.1405 64.102 70.4296 60.0998 72.5655 57.2922C76.4021 52.2494 78.4091 47.1203 79.5624 39.4105C80.338 34.2261 80.3932 32.9098 80.4647 17.862C80.5408 1.85829 80.6102 2.86282 79.3421 1.59486C78.1185 0.371109 78.8424 0.426109 63.9383 0.426108C49.5435 0.426107 50.0474 0.396733 48.8582 1.30392C48.5544 1.53548 48.1161 2.04799 47.884 2.44267L47.4621 3.16048L47.4197 16.7956L47.3772 30.4308L47.7149 31.2156C48.1113 32.137 49.1993 33.1639 50.021 33.3922C50.3579 33.4856 53.165 33.5497 56.9543 33.5502L63.3215 33.5511L63.3215 34.5336C63.3215 36.7706 62.6836 40.567 61.8852 43.0823C60.8238 46.4264 59.2043 49.1227 56.8583 51.4512C54.9444 53.3511 52.7282 54.8598 49.6127 56.3842C47.3346 57.4987 46.9929 57.7753 46.3669 59.0114C46.2011 59.3387 46.0907 59.9222 46.0852 60.4989C46.0774 61.3337 46.1815 61.6728 46.951 63.3198C49.8794 69.5872 50.1189 69.9848 51.3422 70.6089C52.2393 71.0666 53.5274 71.1291 54.4933 70.762ZM8.28832 70.8766C9.15426 70.7167 13.226 68.7242 15.4308 67.3814C22.1199 63.3075 27.3413 57.8495 30.3968 51.7375C32.631 47.2683 33.7377 42.7536 34.5171 34.9277C34.7243 32.848 34.7836 29.7384 34.8396 18.0195C34.9169 1.84017 34.9869 2.8647 33.7171 1.59485C32.4935 0.371257 33.2165 0.426105 18.3215 0.426104C3.80318 0.426103 4.31208 0.39454 3.13145 1.36766C2.82176 1.62297 2.3863 2.19735 2.16364 2.64407L1.75896 3.45625L1.76239 16.9802C1.76582 30.248 1.77192 30.5175 2.08411 31.2073C2.44989 32.0156 3.00785 32.6452 3.7902 33.1323C4.32442 33.4652 4.49223 33.4748 11.0536 33.5511L17.7702 33.6292L17.7225 34.8792C17.5993 38.1078 16.8199 41.9502 15.7374 44.6645C14.6244 47.4555 13.2915 49.4912 11.2686 51.4894C9.42771 53.3078 7.54817 54.6036 4.59786 56.088C1.76957 57.5109 0.979097 58.1667 0.658944 59.3555C0.280038 60.7625 0.479577 61.4714 2.34442 65.348C3.3852 67.5114 4.30878 69.2148 4.66504 69.628C5.57004 70.6775 6.89442 71.1339 8.28832 70.8766Z" fill="#E378B7"/>
</svg>
